<?xml version="1.0" encoding="UTF-8"?>
<svg xmlns="http://www.w3.org/2000/svg" viewBox="0 0 500 500">
  <defs>
    <style>
      .cls-1, .cls-2 {
        fill: #171717;
      }

      .cls-3 {
        stroke-width: .5px;
      }

      .cls-3, .cls-4, .cls-2, .cls-5, .cls-6 {
        stroke-linecap: round;
        stroke-linejoin: round;
      }

      .cls-3, .cls-4, .cls-6 {
        fill: none;
      }

      .cls-3, .cls-2, .cls-5, .cls-6 {
        stroke: #e0e0e0;
      }

      .cls-4 {
        stroke: #171717;
      }

      .cls-5, .cls-7 {
        fill: #e0e0e0;
      }
    </style>
  </defs>
  <g id="BACKGROUND">
    <rect class="cls-1" width="500" height="500"/>
  </g>
  <g id="OBJECTS">
    <g>
      <path class="cls-6" d="M65.11,250.01c0-7.86-6.19-14.28-13.96-14.64-.23,0-.46-.01-.69-.01-8.09,0-14.65,6.56-14.65,14.65s6.56,14.65,14.65,14.65c.23,0,.46,0,.69-.01,7.77-.36,13.96-6.78,13.96-14.64Z"/>
      <g>
        <path class="cls-6" d="M65.6,179.83c-.06,1.29-1.11,2.29-2.39,2.3-.04,0-.08,0-.11,0-1.32-.06-2.35-1.18-2.29-2.5s1.18-2.35,2.5-2.29c.04,0,.08,0,.11,0,1.27.11,2.24,1.21,2.18,2.49Z"/>
        <path class="cls-6" d="M67.92,170.88c-.03.71-.62,1.27-1.32,1.27-.02,0-.04,0-.06,0-.73-.03-1.3-.65-1.27-1.38s.65-1.3,1.38-1.27c.02,0,.04,0,.06,0,.7.06,1.24.67,1.21,1.38Z"/>
        <path class="cls-6" d="M60.59,187.04c.11.02.22.04.32.07,3.63.85,5.98,4.41,5.3,8.11-.06.32-.13.62-.23.92.17-3.35-2.09-6.4-5.41-7.17-.11-.02-.21-.05-.32-.07-3.5-.65-6.87,1.42-7.94,4.71,0-.31.05-.62.11-.94.71-3.81,4.37-6.33,8.18-5.63Z"/>
        <path class="cls-6" d="M57.23,199.28c.15.02.29.06.44.09,4.93,1.05,8.21,5.81,7.38,10.84-.14.82-.37,1.6-.7,2.32-.37-4.06-3.34-7.54-7.46-8.42-.15-.03-.29-.06-.44-.08-4.36-.72-8.52,1.64-10.24,5.5-.07-.79-.04-1.6.09-2.42.86-5.18,5.75-8.68,10.93-7.82Z"/>
        <path class="cls-6" d="M51.85,214.41c.19,0,.39.03.58.04,6.55.59,11.55,6.23,11.26,12.87-.08,1.82-.55,3.55-1.34,5.08-1.7-4.19-5.62-7.27-10.37-7.69-.19-.02-.39-.03-.58-.03-5.01-.22-9.44,2.56-11.58,6.75-.65-1.59-.97-3.35-.89-5.18.29-6.84,6.07-12.14,12.92-11.85Z"/>
      </g>
      <g>
        <path class="cls-6" d="M65.6,320.17c-.06-1.29-1.11-2.29-2.39-2.3-.04,0-.08,0-.11,0-1.32.06-2.35,1.18-2.29,2.5s1.18,2.35,2.5,2.29c.04,0,.08,0,.11,0,1.27-.11,2.24-1.21,2.18-2.49Z"/>
        <path class="cls-6" d="M67.92,329.12c-.03-.71-.62-1.27-1.32-1.27-.02,0-.04,0-.06,0-.73.03-1.3.65-1.27,1.38s.65,1.3,1.38,1.27c.02,0,.04,0,.06,0,.7-.06,1.24-.67,1.21-1.38Z"/>
        <path class="cls-6" d="M60.59,312.96c.11-.02.22-.04.32-.07,3.63-.85,5.98-4.41,5.3-8.11-.06-.32-.13-.62-.23-.92.17,3.35-2.09,6.4-5.41,7.17-.11.02-.21.05-.32.07-3.5.65-6.87-1.42-7.94-4.71,0,.31.05.62.11.94.71,3.81,4.37,6.33,8.18,5.63Z"/>
        <path class="cls-6" d="M57.23,300.72c.15-.02.29-.06.44-.09,4.93-1.05,8.21-5.81,7.38-10.84-.14-.82-.37-1.6-.7-2.32-.37,4.06-3.34,7.54-7.46,8.42-.15.03-.29.06-.44.08-4.36.72-8.52-1.64-10.24-5.5-.07.79-.04,1.6.09,2.42.86,5.18,5.75,8.68,10.93,7.82Z"/>
        <path class="cls-6" d="M51.85,285.59c.19,0,.39-.03.58-.04,6.55-.59,11.55-6.23,11.26-12.87-.08-1.82-.55-3.55-1.34-5.08-1.7,4.19-5.62,7.27-10.37,7.69-.19.02-.39.03-.58.03-5.01.22-9.44-2.56-11.58-6.75-.65,1.59-.97,3.35-.89,5.18.29,6.84,6.07,12.14,12.92,11.85Z"/>
      </g>
    </g>
    <g>
      <g>
        <g>
          <path class="cls-7" d="M202.9,160.9c.39,3.11.48,6.22.5,9.33-.01,3.11-.1,6.22-.5,9.33-.4-3.11-.49-6.22-.5-9.33.02-3.11.11-6.22.5-9.33Z"/>
          <path class="cls-7" d="M208.49,170.1c-1.85.44-3.71.57-5.57.63-1.86.03-3.73-.02-5.6-.37,1.85-.44,3.71-.57,5.57-.63,1.86-.03,3.73.02,5.6.37Z"/>
          <path class="cls-7" d="M206.15,166.99c-.8,1.36-1.82,2.51-2.89,3.6-1.09,1.07-2.24,2.09-3.6,2.89.8-1.36,1.82-2.51,2.89-3.6,1.09-1.07,2.24-2.09,3.6-2.89Z"/>
          <path class="cls-7" d="M206.23,173.4c-1.38-.77-2.55-1.76-3.67-2.81-1.1-1.07-2.14-2.19-2.98-3.53,1.38.77,2.55,1.76,3.67,2.81,1.1,1.07,2.14,2.19,2.98,3.53Z"/>
        </g>
        <g>
          <path class="cls-7" d="M179.15,146.8c.39,2.07.48,4.14.5,6.21-.01,2.07-.1,4.14-.5,6.21-.4-2.07-.49-4.14-.5-6.21.02-2.07.11-4.14.5-6.21Z"/>
          <path class="cls-7" d="M182.87,152.92c-1.23.42-2.47.54-3.71.59-1.24.01-2.48-.04-3.73-.41,1.23-.43,2.47-.54,3.71-.59,1.24-.01,2.48.05,3.73.41Z"/>
          <path class="cls-7" d="M181.31,150.85c-.44,1-1.1,1.78-1.81,2.52-.73.71-1.51,1.37-2.52,1.81.44-1,1.1-1.78,1.81-2.52.73-.71,1.52-1.37,2.52-1.81Z"/>
          <path class="cls-7" d="M181.36,155.12c-1.01-.42-1.81-1.06-2.56-1.75-.73-.71-1.4-1.48-1.87-2.47,1.01.42,1.81,1.06,2.56,1.75.73.72,1.4,1.48,1.87,2.47Z"/>
        </g>
        <g>
          <path class="cls-7" d="M201.7,138.23c.39,1.64.48,3.29.5,4.93-.01,1.64-.1,3.29-.5,4.93-.4-1.64-.49-3.29-.5-4.93.02-1.64.11-3.29.5-4.93Z"/>
          <path class="cls-7" d="M204.65,143.09c-.97.42-1.96.53-2.94.57-.98,0-1.97-.06-2.96-.43.97-.42,1.96-.53,2.94-.57.98,0,1.97.06,2.96.43Z"/>
          <path class="cls-7" d="M203.41,141.44c-.29.85-.8,1.48-1.36,2.07-.58.56-1.22,1.07-2.07,1.36.29-.85.8-1.49,1.36-2.07.58-.56,1.22-1.07,2.07-1.36Z"/>
          <path class="cls-7" d="M203.45,144.83c-.86-.27-1.5-.77-2.1-1.31-.57-.57-1.1-1.19-1.41-2.04.86.27,1.5.77,2.1,1.31.57.57,1.1,1.19,1.41,2.04Z"/>
        </g>
      </g>
      <g>
        <g>
          <path class="cls-7" d="M322.71,138.61c.39,3.11.48,6.22.5,9.33-.01,3.11-.1,6.22-.5,9.33-.4-3.11-.49-6.22-.5-9.33.02-3.11.11-6.22.5-9.33Z"/>
          <path class="cls-7" d="M328.3,147.81c-1.85.44-3.71.57-5.57.63-1.86.03-3.73-.02-5.6-.37,1.85-.44,3.71-.57,5.57-.63,1.86-.03,3.73.02,5.6.37Z"/>
          <path class="cls-7" d="M325.96,144.69c-.8,1.36-1.82,2.51-2.89,3.6-1.09,1.07-2.24,2.09-3.6,2.89.8-1.36,1.82-2.51,2.89-3.6,1.09-1.07,2.24-2.09,3.6-2.89Z"/>
          <path class="cls-7" d="M326.04,151.11c-1.38-.77-2.55-1.76-3.67-2.81-1.1-1.07-2.14-2.19-2.98-3.53,1.38.77,2.55,1.76,3.67,2.81,1.1,1.07,2.14,2.19,2.98,3.53Z"/>
        </g>
        <g>
          <path class="cls-7" d="M299.56,164.12c.39,2.07.48,4.14.5,6.21-.01,2.07-.1,4.14-.5,6.21-.4-2.07-.49-4.14-.5-6.21.02-2.07.11-4.14.5-6.21Z"/>
          <path class="cls-7" d="M303.28,170.24c-1.23.42-2.47.54-3.71.59-1.24.01-2.48-.04-3.73-.41,1.23-.43,2.47-.54,3.71-.59,1.24-.01,2.48.05,3.73.41Z"/>
          <path class="cls-7" d="M301.72,168.17c-.44,1-1.1,1.78-1.81,2.52-.73.71-1.51,1.37-2.52,1.81.44-1,1.1-1.78,1.81-2.52.73-.71,1.52-1.37,2.52-1.81Z"/>
          <path class="cls-7" d="M301.77,172.44c-1.01-.42-1.81-1.06-2.56-1.75-.73-.71-1.4-1.48-1.87-2.47,1.01.42,1.81,1.06,2.56,1.75.73.72,1.4,1.48,1.87,2.47Z"/>
        </g>
        <g>
          <path class="cls-7" d="M296.86,136.56c.39,1.64.48,3.29.5,4.93-.01,1.64-.1,3.29-.5,4.93-.4-1.64-.49-3.29-.5-4.93.02-1.64.11-3.29.5-4.93Z"/>
          <path class="cls-7" d="M299.81,141.41c-.97.42-1.96.53-2.94.57-.98,0-1.97-.06-2.96-.43.97-.42,1.96-.53,2.94-.57.98,0,1.97.06,2.96.43Z"/>
          <path class="cls-7" d="M298.58,139.77c-.29.85-.8,1.48-1.36,2.07-.58.56-1.22,1.07-2.07,1.36.29-.85.8-1.49,1.36-2.07.58-.56,1.22-1.07,2.07-1.36Z"/>
          <path class="cls-7" d="M298.62,143.16c-.86-.27-1.5-.77-2.1-1.31-.57-.57-1.1-1.19-1.41-2.04.86.27,1.5.77,2.1,1.31.57.57,1.1,1.19,1.41,2.04Z"/>
        </g>
      </g>
    </g>
    <g>
      <g>
        <g>
          <path class="cls-7" d="M295.84,323.46c.39,3.11.48,6.22.5,9.33-.01,3.11-.1,6.22-.5,9.33-.4-3.11-.49-6.22-.5-9.33.02-3.11.11-6.22.5-9.33Z"/>
          <path class="cls-7" d="M301.43,332.66c-1.85.44-3.71.57-5.57.63-1.86.03-3.73-.02-5.6-.37,1.85-.44,3.71-.57,5.57-.63,1.86-.03,3.73.02,5.6.37Z"/>
          <path class="cls-7" d="M299.09,329.55c-.8,1.36-1.82,2.51-2.89,3.6-1.09,1.07-2.24,2.09-3.6,2.89.8-1.36,1.82-2.51,2.89-3.6,1.09-1.07,2.24-2.09,3.6-2.89Z"/>
          <path class="cls-7" d="M299.16,335.96c-1.38-.77-2.55-1.76-3.67-2.81-1.1-1.07-2.14-2.19-2.98-3.53,1.38.77,2.55,1.76,3.67,2.81,1.1,1.07,2.14,2.19,2.98,3.53Z"/>
        </g>
        <g>
          <path class="cls-7" d="M317.05,345.14c.39,2.07.48,4.14.5,6.21-.01,2.07-.1,4.14-.5,6.21-.4-2.07-.49-4.14-.5-6.21.02-2.07.11-4.14.5-6.21Z"/>
          <path class="cls-7" d="M320.77,351.26c-1.23.42-2.47.54-3.71.59-1.24.01-2.48-.04-3.73-.41,1.23-.43,2.47-.54,3.71-.59,1.24-.01,2.48.05,3.73.41Z"/>
          <path class="cls-7" d="M319.21,349.19c-.44,1-1.1,1.78-1.81,2.52-.73.71-1.51,1.37-2.52,1.81.44-1,1.1-1.78,1.81-2.52.73-.71,1.52-1.37,2.52-1.81Z"/>
          <path class="cls-7" d="M319.26,353.46c-1.01-.42-1.81-1.06-2.56-1.75-.73-.71-1.4-1.48-1.87-2.47,1.01.42,1.81,1.06,2.56,1.75.73.72,1.4,1.48,1.87,2.47Z"/>
        </g>
        <g>
          <path class="cls-7" d="M290.84,357.56c.39,1.64.48,3.29.5,4.93-.01,1.64-.1,3.29-.5,4.93-.4-1.64-.49-3.29-.5-4.93.02-1.64.11-3.29.5-4.93Z"/>
          <path class="cls-7" d="M293.79,362.42c-.97.42-1.96.53-2.94.57-.98,0-1.97-.06-2.96-.43.97-.42,1.96-.53,2.94-.57.98,0,1.97.06,2.96.43Z"/>
          <path class="cls-7" d="M292.56,360.78c-.29.85-.8,1.48-1.36,2.07-.58.56-1.22,1.07-2.07,1.36.29-.85.8-1.49,1.36-2.07.58-.56,1.22-1.07,2.07-1.36Z"/>
          <path class="cls-7" d="M292.6,364.17c-.86-.27-1.5-.77-2.1-1.31-.57-.57-1.1-1.19-1.41-2.04.86.27,1.5.77,2.1,1.31.57.57,1.1,1.19,1.41,2.04Z"/>
        </g>
      </g>
      <g>
        <g>
          <path class="cls-7" d="M210.14,353.71c.39,3.11.48,6.22.5,9.33-.01,3.11-.1,6.22-.5,9.33-.4-3.11-.49-6.22-.5-9.33.02-3.11.11-6.22.5-9.33Z"/>
          <path class="cls-7" d="M215.73,362.91c-1.85.44-3.71.57-5.57.63-1.86.03-3.73-.02-5.6-.37,1.85-.44,3.71-.57,5.57-.63,1.86-.03,3.73.02,5.6.37Z"/>
          <path class="cls-7" d="M213.39,359.8c-.8,1.36-1.82,2.51-2.89,3.6-1.09,1.07-2.24,2.09-3.6,2.89.8-1.36,1.82-2.51,2.89-3.6,1.09-1.07,2.24-2.09,3.6-2.89Z"/>
          <path class="cls-7" d="M213.46,366.21c-1.38-.77-2.55-1.76-3.67-2.81-1.1-1.07-2.14-2.19-2.98-3.53,1.38.77,2.55,1.76,3.67,2.81,1.1,1.07,2.14,2.19,2.98,3.53Z"/>
        </g>
        <g>
          <path class="cls-7" d="M205.95,323.33c.39,2.07.48,4.14.5,6.21-.01,2.07-.1,4.14-.5,6.21-.4-2.07-.49-4.14-.5-6.21.02-2.07.11-4.14.5-6.21Z"/>
          <path class="cls-7" d="M209.67,329.46c-1.23.42-2.47.54-3.71.59-1.24.01-2.48-.04-3.73-.41,1.23-.43,2.47-.54,3.71-.59,1.24-.01,2.48.05,3.73.41Z"/>
          <path class="cls-7" d="M208.12,327.38c-.44,1-1.1,1.78-1.81,2.52-.73.71-1.51,1.37-2.52,1.81.44-1,1.1-1.78,1.81-2.52.73-.71,1.52-1.37,2.52-1.81Z"/>
          <path class="cls-7" d="M208.17,331.66c-1.01-.42-1.81-1.06-2.56-1.75-.73-.71-1.4-1.48-1.87-2.47,1.01.42,1.81,1.06,2.56,1.75.73.72,1.4,1.48,1.87,2.47Z"/>
        </g>
        <g>
          <path class="cls-7" d="M183.86,342.89c.39,1.64.48,3.29.5,4.93-.01,1.64-.1,3.29-.5,4.93-.4-1.64-.49-3.29-.5-4.93.02-1.64.11-3.29.5-4.93Z"/>
          <path class="cls-7" d="M186.81,347.75c-.97.42-1.96.53-2.94.57-.98,0-1.97-.06-2.96-.43.97-.42,1.96-.53,2.94-.57.98,0,1.97.06,2.96.43Z"/>
          <path class="cls-7" d="M185.57,346.1c-.29.85-.8,1.48-1.36,2.07-.58.56-1.22,1.07-2.07,1.36.29-.85.8-1.49,1.36-2.07.58-.56,1.22-1.07,2.07-1.36Z"/>
          <path class="cls-7" d="M185.61,349.49c-.86-.27-1.5-.77-2.1-1.31-.57-.57-1.1-1.19-1.41-2.04.86.27,1.5.77,2.1,1.31.57.57,1.1,1.19,1.41,2.04Z"/>
        </g>
      </g>
    </g>
    <g>
      <path class="cls-5" d="M434.89,250.01c0-7.86,6.19-14.28,13.96-14.64.23,0,.46-.01.69-.01,8.09,0,14.65,6.56,14.65,14.65s-6.56,14.65-14.65,14.65c-.23,0-.46,0-.69-.01-7.77-.36-13.96-6.78-13.96-14.64Z"/>
      <g>
        <path class="cls-5" d="M434.39,179.83c.06,1.29,1.11,2.29,2.39,2.3.04,0,.08,0,.11,0,1.32-.06,2.35-1.18,2.29-2.5s-1.18-2.35-2.5-2.29c-.04,0-.08,0-.11,0-1.27.11-2.24,1.21-2.18,2.49Z"/>
        <path class="cls-5" d="M432.08,170.88c.03.71.62,1.27,1.32,1.27.02,0,.04,0,.06,0,.73-.03,1.3-.65,1.27-1.38s-.65-1.3-1.38-1.27c-.02,0-.04,0-.06,0-.7.06-1.24.67-1.21,1.38Z"/>
        <path class="cls-5" d="M439.4,187.04c-.11.02-.22.04-.32.07-3.63.85-5.98,4.41-5.3,8.11.06.32.13.62.23.92-.17-3.35,2.09-6.4,5.41-7.17.11-.02.21-.05.32-.07,3.5-.65,6.87,1.42,7.94,4.71,0-.31-.05-.62-.11-.94-.71-3.81-4.37-6.33-8.18-5.63Z"/>
        <path class="cls-5" d="M442.77,199.28c-.15.02-.29.06-.44.09-4.93,1.05-8.21,5.81-7.38,10.84.14.82.37,1.6.7,2.32.37-4.06,3.34-7.54,7.46-8.42.15-.03.29-.06.44-.08,4.36-.72,8.52,1.64,10.24,5.5.07-.79.04-1.6-.09-2.42-.86-5.18-5.75-8.68-10.93-7.82Z"/>
        <path class="cls-5" d="M448.14,214.41c-.19,0-.39.03-.58.04-6.55.59-11.55,6.23-11.26,12.87.08,1.82.55,3.55,1.34,5.08,1.7-4.19,5.62-7.27,10.37-7.69.19-.02.39-.03.58-.03,5.01-.22,9.44,2.56,11.58,6.75.65-1.59.97-3.35.89-5.18-.29-6.84-6.07-12.14-12.92-11.85Z"/>
      </g>
      <g>
        <path class="cls-5" d="M434.39,320.17c.06-1.29,1.11-2.29,2.39-2.3.04,0,.08,0,.11,0,1.32.06,2.35,1.18,2.29,2.5s-1.18,2.35-2.5,2.29c-.04,0-.08,0-.11,0-1.27-.11-2.24-1.21-2.18-2.49Z"/>
        <path class="cls-5" d="M432.08,329.12c.03-.71.62-1.27,1.32-1.27.02,0,.04,0,.06,0,.73.03,1.3.65,1.27,1.38s-.65,1.3-1.38,1.27c-.02,0-.04,0-.06,0-.7-.06-1.24-.67-1.21-1.38Z"/>
        <path class="cls-5" d="M439.4,312.96c-.11-.02-.22-.04-.32-.07-3.63-.85-5.98-4.41-5.3-8.11.06-.32.13-.62.23-.92-.17,3.35,2.09,6.4,5.41,7.17.11.02.21.05.32.07,3.5.65,6.87-1.42,7.94-4.71,0,.31-.05.62-.11.94-.71,3.81-4.37,6.33-8.18,5.63Z"/>
        <path class="cls-5" d="M442.77,300.72c-.15-.02-.29-.06-.44-.09-4.93-1.05-8.21-5.81-7.38-10.84.14-.82.37-1.6.7-2.32.37,4.06,3.34,7.54,7.46,8.42.15.03.29.06.44.08,4.36.72,8.52-1.64,10.24-5.5.07.79.04,1.6-.09,2.42-.86,5.18-5.75,8.68-10.93,7.82Z"/>
        <path class="cls-5" d="M448.14,285.59c-.19,0-.39-.03-.58-.04-6.55-.59-11.55-6.23-11.26-12.87.08-1.82.55-3.55,1.34-5.08,1.7,4.19,5.62,7.27,10.37,7.69.19.02.39.03.58.03,5.01.22,9.44-2.56,11.58-6.75.65,1.59.97,3.35.89,5.18-.29,6.84-6.07,12.14-12.92,11.85Z"/>
      </g>
    </g>
    <g>
      <g>
        <g>
          <path class="cls-7" d="M223.31,252.77c-13.63-16.62-27.44-33.94-46.65-44.43-2.54-1.38-5.16-2.63-7.86-3.68-23-9.03-49-1.22-61.68,20.41-8.6,14.65-7.62,31.15-3.57,47,4.36,17.01,12.71,32.92,22.43,47.45-5.74-10.2-10.31-21.11-13.57-32.51-2.35-8.3-3.99-16.64-4.47-24.7-.46-8.03.25-15.77,2.36-22.63,5.58-18.29,23.44-29.57,42.25-29.12,18.71.45,36.31,10.74,50.21,22.58,6.71,5.66,13.19,12.01,19.62,18.66.31.32.61.64.93.97Z"/>
          <path class="cls-7" d="M409.3,240.83c-1.6-17.92-8.96-34.92-17.53-50.53-2.12-3.87-4.36-7.7-6.85-11.36,1.78,3.59,3.39,7.25,4.88,10.96,1.68,4.16,3.25,8.5,4.62,12.8,2.8,8.61,4.9,17.33,6.04,25.97,2.5,19.99-.47,39.91-16.25,53.99-21.89,19.56-55.71,14.94-79.67,1.96-14.59-7.84-27.9-19.06-39.88-31.73,17.84,24.32,42.89,48.85,73.89,53.93,30.32,4.98,59.7-12.65,68.43-42.25,2.26-7.68,3.04-15.77,2.32-23.74Z"/>
          <path class="cls-6" d="M230.23,394.07c-3.94-.71-7.85-1.59-11.73-2.63-8.42-2.21-16.69-5.06-24.57-8.74-28.76-13.38-52.52-35.74-67.93-63.15-.01-.01-.01-.02-.02-.03,0,0-13.81-23.78-16-30.85s-6.95-43.34-6.95-43.34l11.67-27.01,32.8-13.14,28.33,6.32,22.09,13.57,11.6,12.26,13.8,15.47-.02-.03s.01.02.02.03c2.9,3.01,5.79,6.1,8.7,9.23,3.24,3.46,6.44,6.96,10.04,10.68,33.06,34.1,79.09,59.51,127.58,46.35,5.95-1.6,11.36-3.72,16.67-6.79,15.64-9.01,30.14-24.29,34.68-42.15,6.41-25.32,2.19-50.3-6.92-74.33-1.78-4.72-3.68-9.28-5.8-13.88-2.1-4.62-4.46-9.12-7.02-13.5-10.18-17.51-23.41-33.12-38.93-45.84-15.58-12.66-33.34-22.44-52.15-28.67-9.4-3.11-19.06-5.38-28.8-6.76-9.7-1.33-19.48-1.79-29.19-1.36-1.77.08-3.33,1.4-3.48,3.16-.18,2.02,1.36,3.7,3.32,3.8,37.36,1.83,73.36,16.96,99.84,41.85,13.31,12.34,24.32,27.03,32.4,43.06.22.43.43.86.64,1.29,1.78,3.59,3.39,7.25,4.88,10.96,1.68,4.16,3.25,8.5,4.62,12.8,2.8,8.61,4.9,17.33,6.04,25.97,2.5,19.99-.47,39.91-16.25,53.99-21.89,19.56-55.71,14.94-79.67,1.96-14.59-7.84-27.9-19.06-39.88-31.73-.3-.32-.6-.64-.9-.96-3-3.19-6.2-6.78-9.41-10.35-3.22-3.57-6.48-7.17-9.84-10.76-6.72-7.18-13.77-14.36-21.56-21.14-17.71-15.42-39.16-27.71-62.85-30.32-42.12-4.64-78.21,23.97-83.35,65.94-5.78,47.09,19.38,97.25,52.64,129.23,7.8,7.5,16.3,14.28,25.36,20.17,8.75,5.68,17.97,10.61,27.58,14.62,9.59,4.03,19.56,7.12,29.69,9.36,3.69.79,7.4,1.47,11.14,2.02,2.52.38,5.02.9,7.46,1.58"/>
          <path class="cls-6" d="M223.31,252.77c-13.63-16.62-27.44-33.94-46.65-44.43-2.54-1.38-5.16-2.63-7.86-3.68-23-9.03-49-1.22-61.68,20.41-8.6,14.65-7.62,31.15-3.57,47,4.36,17.01,12.71,32.92,22.43,47.45-5.74-10.2-10.31-21.11-13.57-32.51-2.35-8.3-3.99-16.64-4.47-24.7-.46-8.03.25-15.77,2.36-22.63,5.58-18.29,23.44-29.57,42.25-29.12,18.71.45,36.31,10.74,50.21,22.58,6.71,5.66,13.19,12.01,19.62,18.66.31.32.61.64.93.97Z"/>
          <path class="cls-6" d="M223.31,252.77s.01.02.02.03"/>
          <path class="cls-6" d="M125.98,319.52s.01.02.02.03"/>
          <path class="cls-6" d="M264.66,252.89c17.84,24.31,42.89,48.84,73.89,53.93,30.32,4.97,59.7-12.65,68.43-42.25,2.26-7.67,3.04-15.77,2.33-23.73-1.61-17.91-8.97-34.92-17.53-50.53-2.12-3.87-4.37-7.7-6.86-11.35"/>
          <g>
            <path class="cls-4" d="M112.64,296.5s1.49.05,2.47-1.01"/>
            <path class="cls-4" d="M109.98,290.7s2.29-.1,3.22-1.02"/>
            <path class="cls-4" d="M107.25,283.87s3.32-.11,4-1.22"/>
            <path class="cls-4" d="M104.91,276.92s3.24.25,4.85-.9"/>
            <path class="cls-4" d="M103.04,270s2.67.93,5.6-.69"/>
            <path class="cls-4" d="M101.44,261.87s4.19.59,6.46-.47"/>
            <path class="cls-4" d="M100.54,252.86s4.94,1.43,7.41.24"/>
            <path class="cls-4" d="M100.96,243.54s4.77,2.18,7.96,1.72"/>
            <path class="cls-4" d="M102.96,234.38s4.17,2.6,8.15,2.96"/>
            <path class="cls-4" d="M107.12,225.07s3.44,4.59,7.59,5.03"/>
            <path class="cls-4" d="M112.35,217.74s3.15,5.11,7.15,6.21"/>
            <path class="cls-4" d="M120.02,210.61s1.38,4.93,6.11,7.71"/>
            <path class="cls-4" d="M129.32,205.18s1.03,6.18,4.4,8.98"/>
            <path class="cls-4" d="M139.96,201.87s-.13,6.25,2.24,9.63"/>
            <path class="cls-4" d="M151.43,201s-1.44,4.51,0,9.54"/>
            <path class="cls-4" d="M163.16,202.79s-2.1,4.57-1.7,8.7"/>
            <path class="cls-4" d="M173.43,206.68s-2.8,3.66-2.69,7.28"/>
            <path class="cls-4" d="M182.47,211.82s-2.69,3-3.13,5.7"/>
            <path class="cls-4" d="M190.32,217.52s-2.98,2.33-2.99,4.37"/>
            <path class="cls-4" d="M197.11,223.41s-2.13,1.1-2.59,3.26"/>
            <path class="cls-4" d="M203.44,229.66s-1.67.89-2.28,2.14"/>
          </g>
          <g>
            <path class="cls-4" d="M277.85,269.18s1.28-.99,1.92-1.83"/>
            <path class="cls-4" d="M283.17,274.85s2-1.42,2.44-2.71"/>
            <path class="cls-4" d="M289.37,280.84s2.29-1.6,2.94-3.75"/>
            <path class="cls-4" d="M295.84,286.4s3.21-2.07,3.59-4.7"/>
            <path class="cls-4" d="M302.72,291.57s3.74-3.11,4.03-5.79"/>
            <path class="cls-4" d="M310.03,296.24s3.95-3.37,4.66-6.88"/>
            <path class="cls-4" d="M320.77,301.63s3.76-4.41,3.9-8.91"/>
            <path class="cls-4" d="M331.72,305.36s4.29-4.96,3.26-10.43"/>
            <path class="cls-4" d="M342.5,307.33s2.7-5.8,2.23-11.5"/>
            <path class="cls-4" d="M353.15,307.49s1.9-5.41,0-11.91"/>
            <path class="cls-4" d="M363.8,305.8s.37-6.8-1.55-11.73"/>
            <path class="cls-4" d="M374.12,302.21s-.85-6.35-3.51-10.93"/>
            <path class="cls-4" d="M383.77,296.75s-.49-5.46-5.69-9.42"/>
            <path class="cls-4" d="M392.28,289.59s-3.55-5.34-7.19-7.73"/>
            <path class="cls-4" d="M398.85,281.64s-2.37-5.29-7.32-7.12"/>
            <path class="cls-4" d="M404.36,271.74s-4.24-3.95-8.55-4.53"/>
            <path class="cls-4" d="M407.42,262.96s-4.06-3.66-8.58-3.83"/>
            <path class="cls-4" d="M409.3,252.29s-3.89-2.39-8.7-1.65"/>
            <path class="cls-4" d="M409.43,242.43s-3.26-1.51-8.19-.53"/>
            <path class="cls-4" d="M408.43,234.09s-3.92-1.31-7.43,0"/>
            <path class="cls-4" d="M406.59,225.62s-2.82-1.25-6.46.81"/>
            <path class="cls-4" d="M404.07,217.31s-3.4-.59-5.35,1.35"/>
            <path class="cls-4" d="M400.71,208.56s-2.2-.8-4.12,1.37"/>
            <path class="cls-4" d="M396.59,199.55s-1.94.18-2.89.97"/>
          </g>
        </g>
        <g>
          <g>
            <path class="cls-1" d="M267.71,56.46c1.34.53,2.22,1.91,2.06,3.42-.19,1.81-1.82,3.12-3.63,2.93-1.81-.19-3.12-1.82-2.93-3.63.08-.74.4-1.4.87-1.91"/>
            <path class="cls-1" d="M260.44,62.75s1.78-6.49,6.74-6.4c5.01.09,5.65-.97,5.65-.97"/>
            <path class="cls-1" d="M287.95,52.23s-.33,1.09-1.1,1.78"/>
            <line class="cls-1" x1="265.3" y1="56.66" x2="267.84" y2="62.54"/>
            <path class="cls-1" d="M421.01,229.7c-4.54-17.86-19.04-33.14-34.68-42.15-5.32-3.06-10.72-5.18-16.67-6.79-48.5-13.16-94.52,12.26-127.58,46.35-3.6,3.71-6.8,7.22-10.04,10.68-2.91,3.13-5.8,6.22-8.7,9.23l-13.8,15.47-11.6,12.26-22.09,13.57-28.33,6.32-32.8-13.14-11.67-27.01s4.76-36.27,6.95-43.34c2.19-7.07,16-30.85,16-30.85.01-.01.01-.02.02-.03,15.41-27.41,39.17-49.77,67.93-63.15,7.89-3.68,16.15-6.54,24.57-8.74,3.88-1.03,7.79-1.91,11.73-2.63l-.7-1.45c3.32,5.28,9.64,7.42,15.74,8.61,8.17,1.59,16.95,12.01,22.89,14.19,3.87,1.42,6.16-.82,7.29-2.56.57-.87.3-2.03-.59-2.56-.2-.12-.39-.25-.59-.38l.09-.21c1.63-1.53,4.09-4.88,4.33-11.28,0,0-2.33,7.34-7.78,8.52l-.35.22c-2.23-2-4.03-4.41-5.01-7.38-.75-2.26-.97-4.64-1.98-6.82-.02-.05-.04-.1-.08-.15,0,0,0,0,0,0h0c-2.03-9.73,7.72-21.7,7.72-21.7h0c3.96-4.77,6.83-9.75,8.84-11.81,2.56-2.62,5.89-3.69,8.55-5.74,6.65,2.76,7.9,12.61,7.9,12.61,1.77-12.3-4.45-17.02-4.45-17.02h-.01c.28-.65.52-1.38.7-2.2,1.11-4.86-1.26-7.49-3.26-8.8-1.08-.7-2.55-.54-3.38.44-3.17,3.72-9.3,2.48-9.3,2.48-18.84-3.65-18.2,7.78-26.61,14.76-2.52,2.09-5.47,3.95-8.36,5.53-5.8,3.16-12.16,5.12-18.7,6.1-3.73.55-7.45,1.23-11.14,2.02-10.13,2.24-20.1,5.33-29.69,9.36-9.61,4.01-18.83,8.94-27.58,14.62-9.06,5.89-17.56,12.66-25.36,20.17-33.26,31.98-58.41,82.14-52.64,129.23,5.14,41.97,41.22,70.57,83.35,65.94,23.69-2.6,45.15-14.89,62.85-30.32,7.79-6.79,14.84-13.96,21.56-21.14,3.36-3.59,6.62-7.19,9.84-10.76,3.22-3.57,6.41-7.16,9.41-10.35.3-.32.6-.64.9-.96,11.98-12.68,25.3-23.89,39.88-31.73,23.96-12.98,57.78-17.61,79.67,1.96,15.77,14.08,18.75,34,16.25,53.99-1.14,8.63-3.24,17.36-6.04,25.97-1.37,4.29-2.94,8.63-4.62,12.8-1.48,3.71-3.1,7.37-4.88,10.96-.21.43-.42.86-.64,1.29-8.08,16.03-19.09,30.72-32.4,43.06-26.47,24.89-62.48,40.02-99.84,41.85-1.96.1-3.49,1.78-3.32,3.8.15,1.77,1.71,3.09,3.48,3.16,9.71.43,19.49-.03,29.19-1.36,9.74-1.37,19.4-3.65,28.8-6.76,18.82-6.23,36.58-16,52.15-28.67,15.52-12.72,28.75-28.33,38.93-45.84,2.56-4.38,4.92-8.88,7.02-13.5,2.12-4.6,4.02-9.16,5.8-13.88,9.11-24.03,13.33-49.01,6.92-74.33Z"/>
          </g>
          <g>
            <path class="cls-7" d="M223.31,247.06c-13.63,16.62-27.44,33.94-46.65,44.43-2.54,1.38-5.16,2.63-7.86,3.68-23,9.03-49,1.22-61.68-20.41-8.6-14.65-8.29-31.95-4.24-47.8,4.36-17.01,13.38-32.13,23.1-46.66-5.74,10.2-10.31,21.11-13.57,32.51-2.35,8.3-3.99,16.64-4.47,24.7-.46,8.03.25,15.77,2.36,22.63,5.58,18.29,23.44,29.57,42.25,29.12,18.71-.45,36.31-10.74,50.21-22.58,6.71-5.66,13.19-12.01,19.62-18.66.31-.32.61-.64.93-.97Z"/>
            <path class="cls-7" d="M409.3,259c-1.6,17.92-8.96,34.92-17.53,50.53-2.12,3.87-4.36,7.7-6.85,11.36,1.78-3.59,3.39-7.25,4.88-10.96,1.68-4.16,3.25-8.5,4.62-12.8,2.8-8.61,4.9-17.33,6.04-25.97,2.5-19.99-.47-39.91-16.25-53.99-21.89-19.56-55.71-14.94-79.67-1.96-14.59,7.84-27.9,19.06-39.88,31.73,17.84-24.32,42.89-48.85,73.89-53.93,30.32-4.98,59.7,12.65,68.43,42.25,2.26,7.68,3.04,15.77,2.32,23.74Z"/>
            <g>
              <path class="cls-6" d="M228.13,101.44c2.61,7.43,10.03,10.09,17.14,11.48,8.17,1.59,16.95,12.01,22.89,14.19,3.87,1.42,6.16-.82,7.29-2.56.57-.87.3-2.03-.59-2.56-4.14-2.49-7.75-5.8-9.3-10.51-.75-2.26-.97-4.64-1.98-6.82-.02-.05-.04-.1-.08-.15-1.15-2.43-2.88-4.55-4.93-6.27-2.42-2.03-5.91-4.29-9.12-4.8,9.45,1.47,16.5-4.33,21.68-10.52.02-.03.05-.07.09-.11,3.97-4.77,6.83-9.74,8.84-11.81,2.56-2.63,5.89-3.69,8.56-5.74,1.86-1.44,3.41-3.35,4.14-6.61,1.11-4.86-1.26-7.49-3.26-8.8-1.08-.7-2.55-.54-3.38.44-3.17,3.72-9.3,2.48-9.3,2.48-18.84-3.65-18.2,7.78-26.61,14.76-2.52,2.09-5.47,3.95-8.36,5.53-5.8,3.16-12.16,5.12-18.7,6.1-3.73.55-7.45,1.23-11.14,2.02-10.13,2.24-20.1,5.33-29.69,9.36-9.61,4.01-18.83,8.94-27.58,14.62-9.06,5.89-17.56,12.66-25.36,20.17-33.26,31.98-58.41,82.14-52.64,129.23,5.14,41.97,41.22,70.57,83.35,65.94,23.69-2.6,45.15-14.89,62.85-30.32,7.79-6.79,14.84-13.96,21.56-21.14,3.36-3.59,6.62-7.19,9.84-10.76,3.22-3.57,6.41-7.16,9.41-10.35.3-.32.6-.64.9-.96,11.98-12.68,25.3-23.89,39.88-31.73,23.96-12.98,57.78-17.61,79.67,1.96,15.77,14.08,18.75,34,16.25,53.99-1.14,8.63-3.24,17.36-6.04,25.97-1.37,4.29-2.94,8.63-4.62,12.8-1.48,3.71-3.1,7.37-4.88,10.96-.21.43-.42.86-.64,1.29-8.08,16.03-19.09,30.72-32.4,43.06-26.47,24.89-62.48,40.02-99.84,41.85-1.96.1-3.49,1.78-3.32,3.8.15,1.77,1.71,3.09,3.48,3.16,9.71.43,19.49-.03,29.19-1.36,9.74-1.37,19.4-3.65,28.8-6.76,18.82-6.23,36.58-16,52.15-28.67,15.52-12.72,28.75-28.33,38.93-45.84,2.56-4.38,4.92-8.88,7.02-13.5,2.12-4.6,4.02-9.16,5.8-13.88,9.11-24.03,13.33-49.01,6.92-74.33-4.54-17.86-19.04-33.14-34.68-42.15-5.32-3.06-10.72-5.18-16.67-6.79-48.5-13.16-94.52,12.26-127.58,46.35-3.6,3.71-6.8,7.22-10.04,10.68-2.91,3.13-5.8,6.22-8.7,9.23-.01.01-.02.02-.02.03l.02-.03-13.8,15.47-11.6,12.26-22.09,13.57-28.33,6.32-32.8-13.14-11.67-27.01s4.76-36.27,6.95-43.34,16-30.85,16-30.85c.01-.01.01-.02.02-.03,15.41-27.41,39.17-49.77,67.93-63.15,7.89-3.68,16.15-6.54,24.57-8.74,3.88-1.03,7.79-1.91,11.73-2.63"/>
              <path class="cls-6" d="M267.71,56.46c1.34.53,2.22,1.91,2.06,3.42-.19,1.81-1.82,3.12-3.63,2.93-1.81-.19-3.12-1.82-2.93-3.63.08-.74.4-1.4.87-1.91"/>
              <path class="cls-6" d="M260.44,62.75s1.78-6.49,6.74-6.4c5.01.09,5.65-.97,5.65-.97"/>
              <path class="cls-6" d="M271.23,82.8s-9.75,11.97-7.72,21.7"/>
              <path class="cls-6" d="M292.07,60.84s6.22,4.72,4.45,17.02c0,0-1.25-9.85-7.91-12.61"/>
              <path class="cls-6" d="M274.36,121.4c1.63-1.53,4.09-4.88,4.33-11.28,0,0-2.33,7.34-7.78,8.52"/>
              <path class="cls-6" d="M287.95,52.23s-.33,1.09-1.1,1.78"/>
              <path class="cls-7" d="M265.42,56.61c.69.87,1.17,1.82,1.6,2.79.41.98.78,1.99.93,3.08.01.07-.04.14-.12.15-.05,0-.1-.01-.13-.05-.69-.86-1.17-1.82-1.6-2.79-.41-.98-.77-1.99-.93-3.08-.01-.07.04-.14.12-.15.05,0,.1.01.13.05Z"/>
            </g>
            <path class="cls-6" d="M260.45,100.01s-.07-4.24,2.32-9.48"/>
            <path class="cls-6" d="M257.43,97.33s-.4-2.35,1.2-4.77"/>
            <g>
              <path class="cls-6" d="M265.31,110.66c.6.1,1.22.09,1.81-.06,2.3-.56,3.82-2.68,5.69-4.15,2.36-1.86,5.58-2.71,8.48-1.91,2.9.8,5.32,3.35,5.64,6.34.25,2.38-.75,4.84-.07,7.14.79,2.67,3.78,4.28,6.56,4.07,2.78-.2,5.27-1.88,7.1-3.97"/>
              <path class="cls-6" d="M296.86,121.05c.81-1.33,1.22-2.9,1.18-4.45"/>
            </g>
            <path class="cls-6" d="M231.77,77.22s-6.06.99-6.6,6.07"/>
            <path class="cls-6" d="M223.31,247.06c-13.63,16.62-27.44,33.94-46.65,44.43-2.54,1.38-5.16,2.63-7.86,3.68-23,9.03-49,1.22-61.68-20.41-8.6-14.65-8.22-32.24-4.16-48.09,4.36-17.01,13.3-31.83,23.02-46.37-5.74,10.2-10.31,21.11-13.57,32.51-2.35,8.3-3.99,16.64-4.47,24.7-.46,8.03.25,15.77,2.36,22.63,5.58,18.29,23.44,29.57,42.25,29.12,18.71-.45,36.31-10.74,50.21-22.58,6.71-5.66,13.19-12.01,19.62-18.66.31-.32.61-.64.93-.97Z"/>
            <path class="cls-6" d="M223.33,247.02s-.02.02-.02.03"/>
            <path class="cls-6" d="M126,180.27s-.01.02-.02.03"/>
            <path class="cls-6" d="M264.66,246.94c17.84-24.31,42.89-48.84,73.89-53.93,30.32-4.97,59.7,12.65,68.43,42.25,2.26,7.67,3.04,15.77,2.33,23.73-1.61,17.91-8.97,34.92-17.53,50.53-2.12,3.87-4.37,7.7-6.86,11.35"/>
            <g>
              <path class="cls-4" d="M112.27,203.33s1.86-.05,2.84,1.01"/>
              <path class="cls-4" d="M109.4,209.13s1.85-.16,3.81,1.02"/>
              <path class="cls-4" d="M106.66,215.8s3.1-.07,4.59,1.37"/>
              <path class="cls-4" d="M104.29,222.8s3.86-.15,5.47,1"/>
              <path class="cls-4" d="M102.47,229.78s3.33-.73,6.16.73"/>
              <path class="cls-4" d="M100.9,237.98s4.73-.61,7,.45"/>
              <path class="cls-4" d="M100.34,246.97s3.81-1.27,7.61-.24"/>
              <path class="cls-4" d="M100.96,256.29s4.77-2.18,7.96-1.72"/>
              <path class="cls-4" d="M102.96,265.45s4.17-2.6,8.15-2.96"/>
              <path class="cls-4" d="M107.12,274.76s3.44-4.59,7.59-5.03"/>
              <path class="cls-4" d="M112.35,282.08s3.15-5.11,7.15-6.21"/>
              <path class="cls-4" d="M120.02,289.22s1.38-4.93,6.11-7.71"/>
              <path class="cls-4" d="M129.32,294.65s1.03-6.18,4.4-8.98"/>
              <path class="cls-4" d="M139.96,297.96s-.13-6.25,2.24-9.63"/>
              <path class="cls-4" d="M151.43,298.82s-1.44-4.51,0-9.54"/>
              <path class="cls-4" d="M163.16,297.03s-2.1-4.57-1.7-8.7"/>
              <path class="cls-4" d="M173.43,293.14s-2.8-3.66-2.69-7.28"/>
              <path class="cls-4" d="M182.47,288.01s-2.69-3-3.13-5.7"/>
              <path class="cls-4" d="M190.32,282.3s-2.98-2.33-2.99-4.37"/>
              <path class="cls-4" d="M197.11,276.42s-2.13-1.1-2.59-3.26"/>
              <path class="cls-4" d="M203.44,270.17s-1.67-.89-2.28-2.14"/>
            </g>
            <g>
              <path class="cls-4" d="M277.85,230.65s1.28.99,1.92,1.83"/>
              <path class="cls-4" d="M283.17,224.97s2,1.42,2.44,2.71"/>
              <path class="cls-4" d="M289.37,218.99s2.29,1.6,2.94,3.75"/>
              <path class="cls-4" d="M295.84,213.43s3.21,2.07,3.59,4.7"/>
              <path class="cls-4" d="M302.72,208.26s3.74,3.11,4.03,5.79"/>
              <path class="cls-4" d="M310.03,203.59s3.95,3.37,4.66,6.88"/>
              <path class="cls-4" d="M320.77,198.2s3.76,4.41,3.9,8.91"/>
              <path class="cls-4" d="M331.72,194.47s4.29,4.96,3.26,10.43"/>
              <path class="cls-4" d="M342.5,192.49s2.7,5.8,2.23,11.5"/>
              <path class="cls-4" d="M353.15,192.33s1.9,5.41,0,11.91"/>
              <path class="cls-4" d="M363.8,194.03s.37,6.8-1.55,11.73"/>
              <path class="cls-4" d="M374.12,197.61s-.85,6.35-3.51,10.93"/>
              <path class="cls-4" d="M383.77,203.08s-.49,5.46-5.69,9.42"/>
              <path class="cls-4" d="M392.28,210.24s-3.55,5.34-7.19,7.73"/>
              <path class="cls-4" d="M398.85,218.18s-2.37,5.29-7.32,7.12"/>
              <path class="cls-4" d="M404.36,228.09s-4.24,3.95-8.55,4.53"/>
              <path class="cls-4" d="M407.42,236.87s-4.06,3.66-8.58,3.83"/>
              <path class="cls-4" d="M409.3,247.53s-3.89,2.39-8.7,1.65"/>
              <path class="cls-4" d="M409.43,257.4s-3.26,1.51-8.19.53"/>
              <path class="cls-4" d="M408.43,265.74s-3.92,1.31-7.43,0"/>
              <path class="cls-4" d="M406.59,274.21s-2.82,1.25-6.46-.81"/>
              <path class="cls-4" d="M404.07,282.52s-3.4.59-5.35-1.35"/>
              <path class="cls-4" d="M400.71,291.27s-2.2.8-4.12-1.37"/>
              <path class="cls-4" d="M396.59,300.28s-1.94-.18-2.89-.97"/>
            </g>
          </g>
        </g>
        <path class="cls-1" d="M292.76,441.2c-.74-3.26-2.28-5.17-4.14-6.61-2.67-2.05-6-3.12-8.56-5.74-2.01-2.07-4.88-7.04-8.84-11.81,0,0,0,0,0,0h0s-9.52-11.69-7.79-21.35c0,0,1.37-5.07,2.12-7.33,1.55-4.71,5.16-8.02,9.3-10.51.89-.53,1.16-1.69.59-2.56-1.13-1.74-3.43-3.98-7.29-2.56-5.94,2.19-14.72,12.6-22.89,14.19-7.11,1.38-14.52,4.05-17.14,11.48l2.6,23.91c3.85,1.08,7.59,2.56,11.11,4.48,2.89,1.57,5.84,3.44,8.36,5.53,8.41,6.99,7.78,18.41,26.61,14.76,0,0,6.13-1.24,9.3,2.48.83.98,2.31,1.14,3.38.44,2-1.31,4.37-3.94,3.26-8.8Z"/>
        <g>
          <path class="cls-6" d="M230.73,422.3c3.85,1.08,7.59,2.56,11.11,4.48,2.89,1.57,5.84,3.44,8.36,5.53,8.41,6.99,7.78,18.41,26.61,14.76,0,0,6.13-1.24,9.3,2.48.83.98,2.31,1.14,3.38.44,2-1.31,4.37-3.94,3.26-8.8-.74-3.26-2.28-5.17-4.14-6.61-2.67-2.05-6-3.12-8.56-5.74-2.01-2.06-4.88-7.04-8.84-11.81-.03-.04-.07-.08-.09-.11-5.18-6.2-12.24-11.99-21.68-10.52,3.21-.51,6.7-2.77,9.12-4.8,2.05-1.72,3.78-3.84,4.93-6.27.03-.05.05-.1.08-.15,1.01-2.19,1.23-4.56,1.98-6.82,1.55-4.71,5.16-8.02,9.3-10.51.89-.53,1.16-1.69.59-2.56-1.13-1.74-3.43-3.98-7.29-2.56-5.94,2.19-14.72,12.6-22.89,14.19-7.11,1.38-14.52,4.05-17.14,11.48"/>
          <path class="cls-6" d="M267.71,443.37c1.34-.53,2.22-1.91,2.06-3.42-.19-1.81-1.82-3.12-3.63-2.93-1.81.19-3.12,1.82-2.93,3.63.08.74.4,1.4.87,1.91"/>
          <path class="cls-6" d="M260.44,437.08s1.78,6.49,6.74,6.4c5.01-.09,5.65.97,5.65.97"/>
          <path class="cls-6" d="M271.23,417.03s-9.75-11.97-7.72-21.7"/>
          <path class="cls-6" d="M292.07,438.99s6.22-4.72,4.45-17.02c0,0-1.25,9.85-7.91,12.61"/>
          <path class="cls-6" d="M274.36,378.43c1.63,1.53,4.09,4.88,4.33,11.28,0,0-2.33-7.34-7.78-8.52"/>
          <path class="cls-6" d="M287.95,447.6s-.33-1.09-1.1-1.78"/>
          <path class="cls-7" d="M265.18,443.12c.16-1.09.52-2.1.93-3.08.43-.98.91-1.93,1.6-2.79.05-.06.13-.07.19-.02.04.03.06.08.05.13-.15,1.1-.51,2.1-.93,3.08-.43.97-.92,1.93-1.6,2.79-.05.06-.13.07-.19.02-.04-.03-.06-.08-.05-.13Z"/>
          <path class="cls-6" d="M260.45,399.82s-.07,4.24,2.32,9.48"/>
          <path class="cls-6" d="M257.43,402.5s-.4,2.35,1.2,4.77"/>
          <g>
            <path class="cls-6" d="M265.31,389.17c.6-.1,1.22-.09,1.81.06,2.3.56,3.82,2.68,5.69,4.15,2.36,1.86,5.58,2.71,8.48,1.91,2.9-.8,5.32-3.35,5.64-6.34.25-2.38-.75-4.84-.07-7.14.79-2.67,3.78-4.28,6.56-4.07,2.78.2,5.27,1.88,7.1,3.97"/>
            <path class="cls-6" d="M296.86,378.78c.81,1.33,1.22,2.9,1.18,4.45"/>
          </g>
          <path class="cls-6" d="M231.77,422.6s-6.06-.99-6.6-6.07"/>
        </g>
      </g>
      <g>
        <g>
          <path class="cls-6" d="M98.05,217.43c-.8,2.63-2.84,4.34-4.56,3.81-1.72-.52-2.46-3.08-1.65-5.71"/>
          <path class="cls-6" d="M91.84,215.53c-.8,2.63-2.84,4.34-4.56,3.81-1.72-.52-2.46-3.08-1.65-5.71"/>
          <path class="cls-6" d="M93.5,221.24c-.8,2.63-2.84,4.34-4.56,3.81-1.72-.52-2.46-3.08-1.65-5.71"/>
        </g>
        <g>
          <path class="cls-6" d="M130.55,299.37c2.61.85,4.28,2.92,3.73,4.63-.55,1.71-3.12,2.4-5.74,1.55"/>
          <path class="cls-6" d="M128.54,305.54c2.61.85,4.28,2.92,3.73,4.63-.55,1.71-3.12,2.4-5.74,1.55"/>
          <path class="cls-6" d="M134.27,303.99c2.61.85,4.28,2.92,3.73,4.63-.55,1.71-3.12,2.4-5.74,1.55"/>
        </g>
        <g>
          <path class="cls-6" d="M216.56,266.32c1.87-2.01,4.45-2.66,5.77-1.44,1.31,1.22.86,3.84-1,5.86"/>
          <path class="cls-6" d="M221.32,270.73c1.87-2.01,4.45-2.66,5.77-1.44,1.31,1.22.87,3.84-1,5.86"/>
          <path class="cls-6" d="M222.32,264.88c1.87-2.01,4.45-2.66,5.77-1.44,1.31,1.22.87,3.84-1,5.86"/>
        </g>
        <g>
          <path class="cls-6" d="M295.11,192.34c2.56-.99,5.17-.44,5.81,1.23s-.9,3.83-3.47,4.83"/>
          <path class="cls-6" d="M297.45,198.39c2.56-.99,5.17-.44,5.81,1.23.65,1.67-.9,3.83-3.47,4.83"/>
          <path class="cls-6" d="M300.92,193.57c2.56-.99,5.17-.44,5.81,1.23s-.9,3.83-3.47,4.83"/>
        </g>
        <g>
          <path class="cls-6" d="M421.07,246.82c.1,1.79-.77,3.29-1.93,3.35-1.17.06-2.19-1.33-2.29-3.12"/>
          <path class="cls-6" d="M416.85,247.05c.1,1.79-.77,3.29-1.93,3.35-1.17.06-2.19-1.33-2.29-3.12"/>
          <path class="cls-6" d="M419.14,250.17c.1,1.79-.77,3.29-1.93,3.35-1.17.06-2.19-1.33-2.29-3.12"/>
        </g>
        <g>
          <path class="cls-6" d="M379.02,354.78c-1.17,1.36-2.84,1.84-3.72,1.07s-.65-2.48.52-3.84"/>
          <path class="cls-6" d="M375.82,352.02c-1.17,1.36-2.84,1.84-3.72,1.07s-.65-2.48.52-3.84"/>
          <path class="cls-6" d="M375.3,355.86c-1.17,1.36-2.84,1.84-3.72,1.07s-.65-2.48.52-3.84"/>
        </g>
        <g>
          <path class="cls-6" d="M211.28,102.32c-2.57.97-5.17.41-5.8-1.27-.64-1.68.93-3.83,3.5-4.8"/>
          <path class="cls-6" d="M208.98,96.25c-2.57.97-5.17.41-5.8-1.27s.93-3.83,3.5-4.8"/>
          <path class="cls-6" d="M205.48,101.05c-2.57.97-5.17.41-5.8-1.27-.64-1.68.93-3.83,3.5-4.8"/>
        </g>
        <g>
          <path class="cls-6" d="M144.19,141.22c-2,1.89-4.62,2.36-5.85,1.05-1.23-1.3-.61-3.89,1.39-5.78"/>
          <path class="cls-6" d="M139.74,136.49c-2,1.89-4.62,2.36-5.85,1.05s-.61-3.89,1.39-5.78"/>
          <path class="cls-6" d="M138.35,142.27c-2,1.89-4.62,2.36-5.85,1.05-1.23-1.3-.61-3.89,1.39-5.78"/>
        </g>
      </g>
      <g>
        <g>
          <path class="cls-6" d="M170.87,198.74c2.55,1.03,5.16.51,5.83-1.15.67-1.66-.85-3.84-3.4-4.87"/>
          <path class="cls-6" d="M173.29,192.72c2.55,1.03,5.16.51,5.83-1.15s-.85-3.84-3.4-4.87"/>
          <path class="cls-6" d="M176.69,197.59c2.55,1.03,5.16.51,5.83-1.15.67-1.66-.85-3.84-3.4-4.87"/>
        </g>
        <g>
          <path class="cls-6" d="M292.37,303.77c1.77,1.41,3.94,1.62,4.87.47.92-1.15.24-3.23-1.53-4.64"/>
          <path class="cls-6" d="M295.71,299.6c1.77,1.41,3.94,1.62,4.87.47.92-1.15.24-3.23-1.53-4.64"/>
          <path class="cls-6" d="M297.23,304.24c1.77,1.41,3.94,1.62,4.87.47.92-1.15.24-3.23-1.53-4.64"/>
        </g>
        <g>
          <path class="cls-6" d="M378.08,143.5c-1.38-1.15-3.1-1.35-3.85-.45s-.24,2.56,1.14,3.7"/>
          <path class="cls-6" d="M375.37,146.76c-1.38-1.15-3.1-1.35-3.85-.45-.75.9-.24,2.56,1.14,3.7"/>
          <path class="cls-6" d="M374.23,143.06c-1.38-1.15-3.1-1.35-3.85-.45-.75.9-.24,2.56,1.14,3.7"/>
        </g>
        <g>
          <path class="cls-6" d="M209.35,397.17c-2.62-.84-5.18-.14-5.73,1.57-.55,1.71,1.13,3.77,3.74,4.61"/>
          <path class="cls-6" d="M207.37,403.36c-2.62-.84-5.18-.14-5.73,1.57-.55,1.71,1.13,3.77,3.74,4.61"/>
          <path class="cls-6" d="M203.62,398.74c-2.62-.84-5.18-.14-5.73,1.57s1.13,3.77,3.74,4.61"/>
        </g>
        <g>
          <path class="cls-6" d="M136.26,350c-2.02-1.86-4.64-2.3-5.86-.99-1.22,1.32-.56,3.9,1.46,5.76"/>
          <path class="cls-6" d="M131.85,354.77c-2.02-1.86-4.64-2.3-5.86-.99-1.22,1.32-.56,3.9,1.46,5.76"/>
          <path class="cls-6" d="M130.4,349.01c-2.02-1.86-4.64-2.3-5.86-.99-1.22,1.32-.56,3.9,1.46,5.76"/>
        </g>
      </g>
    </g>
    <g>
      <path class="cls-7" d="M279.82,165.13c0,.24-.17.44-.4.48-.7.15-1.52-.14-2.04-.56-.53-.42-.92-.87-1.31-1.2s-.7-.46-.98-.42c-.34.04-.55.17-.73.42-.2.27-.4.74-.66,1.3-.27.55-.67,1.33-1.57,1.85-.88.47-1.9.56-2.88.17-.93-.41-1.45-1.01-1.87-1.41-.39-.4-.73-.63-.81-.61-.05.03-.02.03-.06.07-.03,0-.05.06-.02.06.07,0-.04.13-.23.57-.22.44-.44,1.11-1.12,1.93-.25.27-.56.55-.92.78.35-.11.73-.2,1.17-.21.6,0,1.14.13,1.63.37.49.21.96.61,1.3,1.03.65.88.78,1.66.92,2.22.11.55.22.93.28,1.06.02.1.21.24.36.28.13.05.47-.04.91-.32.46-.26.98-.67,1.74-.95.4-.12.84-.22,1.29-.15.44.04.83.19,1.2.39.77.45,1.16,1.26,1.33,1.87.17.62.25,1.17.41,1.62.16.44.38.75.79.94h0c.25.12.36.41.24.67-.1.22-.34.33-.56.28-.7-.16-1.33-.75-1.64-1.35-.32-.6-.49-1.17-.71-1.63-.22-.45-.45-.7-.72-.78-.33-.1-.58-.07-.84.08-.3.17-.66.52-1.13.93-.47.39-1.16.94-2.19,1.05-.99.07-1.96-.26-2.7-1.02-.68-.76-.91-1.51-1.13-2.04-.2-.53-.41-.88-.5-.89-.05,0-.02.02-.08.03-.03,0-.07.04-.04.05.06.03-.09.11-.45.43-.37.32-.85.84-1.8,1.31-.32.14-.71.26-1.11.33.35.04.72.12,1.1.29.55.25.99.58,1.34,1,.36.39.63.95.77,1.47.24,1.07.04,1.83-.06,2.4-.12.55-.18.94-.17,1.08-.03.11.09.31.21.41.1.1.44.15.96.08.53-.06,1.17-.22,1.98-.16.41.05.86.14,1.24.38.38.22.68.52.93.85.52.72.55,1.62.46,2.24-.1.64-.25,1.18-.29,1.65-.03.47.04.84.34,1.18h0c.18.21.16.53-.05.71-.18.16-.44.17-.63.03-.57-.42-.91-1.22-.95-1.9-.04-.67.03-1.26.02-1.77-.02-.51-.13-.83-.35-1.01-.25-.23-.49-.3-.79-.27-.34.04-.82.21-1.41.39-.59.16-1.44.39-2.43.07-.93-.34-1.68-1.04-2.05-2.03-.32-.97-.22-1.75-.21-2.33.04-.56,0-.97-.09-1.01-.05-.02-.03.01-.08,0-.03-.01-.09,0-.06.03.04.05-.12.06-.59.21-.47.13-1.11.41-2.17.46-.36,0-.76-.05-1.16-.15.31.18.61.41.9.71.39.46.66.94.81,1.46.17.5.19,1.13.11,1.66-.22,1.07-.72,1.69-1.04,2.16-.33.46-.54.79-.59.93-.07.08-.04.31.03.45.05.13.34.32.84.47.5.16,1.15.27,1.87.65.36.21.73.48.98.85.27.36.41.75.51,1.16.18.87-.16,1.7-.5,2.23-.34.55-.7.98-.93,1.4-.22.41-.3.78-.17,1.21h0c.08.27-.07.56-.33.64-.23.07-.48-.03-.59-.23-.35-.63-.34-1.49-.1-2.12.24-.64.55-1.15.74-1.61.19-.48.22-.82.1-1.07-.15-.31-.34-.47-.63-.57-.32-.1-.82-.14-1.44-.22-.61-.09-1.47-.23-2.24-.92-.72-.69-1.12-1.63-1.05-2.69.1-1.01.51-1.69.76-2.21.26-.5.37-.89.33-.96-.04-.04-.03-.01-.08-.04-.02-.02-.08-.03-.07,0,.02.07-.14.01-.62-.04-.48-.07-1.19-.08-2.17-.46-.34-.16-.7-.37-1.03-.64.21.3.42.63.56,1.05.18.57.23,1.12.15,1.66-.05.53-.28,1.1-.58,1.56-.63.89-1.34,1.25-1.82,1.55-.49.28-.82.5-.92.6-.1.05-.16.27-.16.43,0,.14.18.43.58.77.4.35.94.72,1.44,1.36.24.34.47.73.55,1.18.1.43.07.85,0,1.26-.18.87-.84,1.49-1.36,1.84-.54.36-1.04.6-1.42.89-.37.29-.59.59-.64,1.04h0c-.04.29-.28.48-.56.45-.24-.03-.42-.22-.44-.45-.07-.71.3-1.5.78-1.98.46-.48.96-.82,1.32-1.17.37-.35.53-.65.53-.93,0-.35-.12-.57-.34-.77-.26-.23-.7-.47-1.23-.79-.52-.33-1.25-.81-1.68-1.76-.37-.92-.35-1.94.14-2.88.5-.88,1.15-1.33,1.59-1.71.44-.35.71-.66.69-.75-.02-.04-.02,0-.06-.06,0-.03-.06-.06-.06-.03,0,.08-.12-.05-.54-.29-.42-.26-1.06-.55-1.8-1.31-.25-.27-.49-.61-.68-.99.07.36.12.74.08,1.18-.07.59-.25,1.11-.54,1.58-.25.46-.7.89-1.16,1.19-.94.55-1.73.59-2.29.68-.57.05-.95.12-1.09.17-.11.01-.26.18-.32.33-.06.12-.01.47.22.94.22.48.57,1.04.77,1.82.07.41.13.86.02,1.3-.09.44-.29.81-.53,1.15-.52.72-1.37,1.02-1.99,1.13-.63.11-1.19.13-1.66.24-.45.11-.78.3-1.01.68h0c-.14.25-.45.33-.69.19-.21-.12-.29-.37-.22-.59.23-.68.88-1.25,1.51-1.49.63-.25,1.22-.36,1.69-.53.48-.18.75-.39.86-.65.13-.31.12-.56,0-.84-.14-.31-.44-.71-.8-1.22-.34-.51-.81-1.24-.81-2.28.03-.99.46-1.93,1.29-2.58.82-.6,1.6-.75,2.15-.91.55-.15.92-.32.94-.4,0-.06-.02-.03-.03-.09,0-.03-.03-.08-.05-.05-.03.07-.09-.09-.38-.48-.27-.41-.74-.94-1.11-1.93-.1-.34-.19-.74-.21-1.15-.08.35-.2.71-.41,1.08-.3.51-.68.92-1.13,1.22-.43.32-1.01.53-1.54.61-1.09.13-1.83-.15-2.38-.31-.54-.18-.92-.27-1.06-.28-.1-.04-.31.06-.43.17-.11.08-.2.42-.18.95,0,.52.09,1.17-.04,1.98-.1.4-.23.83-.51,1.19-.26.36-.59.62-.95.84-.77.44-1.67.37-2.27.22-.63-.16-1.15-.37-1.62-.46-.46-.08-.83-.05-1.2.22h0c-.23.16-.54.11-.7-.12-.14-.19-.12-.46.04-.63.48-.53,1.31-.78,1.99-.74.67.02,1.25.16,1.76.2.5.04.83-.05,1.04-.24.25-.23.34-.46.35-.76,0-.35-.12-.84-.24-1.45-.1-.6-.23-1.47.19-2.41.43-.9,1.2-1.57,2.23-1.83.99-.22,1.76-.04,2.33.04.56.09.97.08,1.02,0,.02-.05,0-.03.01-.09,0-.02,0-.08-.02-.06-.06.04-.05-.12-.15-.6-.09-.48-.3-1.15-.23-2.21.04-.36.12-.75.27-1.13-.21.28-.47.56-.8.81-.5.35-1,.56-1.54.65-.52.12-1.14.08-1.66-.06-1.04-.33-1.6-.89-2.04-1.25-.42-.39-.73-.63-.86-.7-.08-.07-.31-.07-.46-.01-.13.03-.35.31-.55.79-.21.48-.39,1.11-.84,1.79-.25.33-.55.67-.95.88-.38.23-.79.33-1.21.39-.88.09-1.67-.34-2.17-.73-.5-.4-.89-.8-1.28-1.07-.39-.26-.75-.38-1.19-.29h0c-.27.05-.54-.12-.59-.4-.05-.23.08-.46.29-.56.66-.28,1.52-.17,2.12.13.6.3,1.08.66,1.52.9.45.24.79.3,1.06.21.32-.11.5-.28.62-.56.14-.31.23-.81.37-1.41.16-.6.39-1.44,1.16-2.14.75-.64,1.74-.94,2.78-.76,1,.21,1.62.69,2.11.98.48.32.85.47.93.43.04-.03,0-.03.04-.07.03-.02.04-.08,0-.07-.07.02,0-.13.11-.61.12-.47.2-1.17.69-2.11.18-.32.43-.66.74-.96-.32.18-.67.35-1.1.45-.59.11-1.14.11-1.67-.03-.52-.1-1.07-.39-1.49-.73-.82-.72-1.11-1.46-1.36-1.98-.22-.52-.41-.86-.5-.98-.04-.1-.25-.19-.41-.2-.14-.02-.45.14-.83.5s-.81.86-1.5,1.29c-.36.2-.77.39-1.22.42-.44.06-.86-.02-1.26-.14-.84-.27-1.39-.99-1.69-1.54-.3-.57-.49-1.1-.73-1.51-.25-.39-.53-.65-.97-.75h0c-.27-.06-.44-.33-.38-.6.05-.23.26-.39.49-.39.72,0,1.46.45,1.89.98.43.51.72,1.04,1.02,1.44.32.4.6.59.88.62.34.03.57-.06.8-.26.25-.23.54-.64.91-1.14.38-.48.94-1.16,1.92-1.48.96-.28,1.98-.15,2.86.44.82.59,1.2,1.28,1.53,1.76.3.46.58.76.67.76.05,0,.02-.02.07-.05.03,0,.07-.05.03-.06-.07-.01.07-.12.35-.51.3-.39.66-.99,1.49-1.65.29-.21.64-.41,1.02-.56-.35.04-.73.03-1.14-.05-.59-.14-1.09-.37-1.51-.7-.44-.31-.82-.8-1.07-1.28-.45-.99-.41-1.79-.43-2.36,0-.56-.03-.96-.06-1.1,0-.1-.16-.27-.29-.35-.12-.08-.47-.05-.96.12-.5.17-1.09.46-1.9.57-.41.04-.87.04-1.29-.11-.42-.13-.78-.37-1.09-.64-.66-.6-.87-1.47-.91-2.1-.05-.64,0-1.2-.07-1.68-.06-.46-.21-.8-.58-1.07h0c-.23-.17-.27-.49-.11-.71.15-.19.4-.25.61-.16.66.3,1.15,1.01,1.33,1.66.18.65.23,1.25.35,1.74.12.49.3.78.55.92.3.16.54.18.83.09.33-.11.76-.37,1.3-.67.54-.28,1.33-.68,2.36-.57.98.13,1.86.66,2.43,1.56.51.88.57,1.66.68,2.23.09.56.22.94.3.97.06,0,.03-.01.09-.02.03.01.08-.02.05-.04-.06-.04.11-.08.53-.32.43-.23,1-.64,2.03-.91.35-.07.75-.11,1.16-.09-.33-.11-.68-.27-1.02-.51-.48-.37-.85-.78-1.1-1.26-.27-.46-.42-1.06-.45-1.6,0-1.09.35-1.8.56-2.33.23-.52.37-.89.39-1.03.05-.1-.03-.31-.12-.44-.08-.12-.4-.24-.93-.28-.52-.05-1.18-.03-1.96-.25-.39-.13-.81-.32-1.13-.63-.34-.29-.56-.65-.74-1.03-.36-.81-.2-1.7.02-2.28.22-.61.48-1.1.62-1.56.13-.45.13-.83-.09-1.22h0c-.14-.25-.05-.56.19-.69.21-.12.47-.07.62.1.48.54.64,1.39.53,2.06-.09.66-.29,1.23-.38,1.72-.09.5-.04.84.13,1.07.2.27.42.39.72.42.34.04.84-.03,1.46-.08.61-.04,1.49-.08,2.39.44.84.52,1.43,1.36,1.58,2.41.11,1.01-.15,1.75-.28,2.31-.15.55-.18.96-.12,1.02.05.02.03,0,.08.01.03.02.09.02.07-.01-.04-.06.13-.04.61-.09.49-.03,1.18-.17,2.23.01.36.08.75.21,1.13.4-.27-.24-.54-.53-.76-.9-.29-.53-.46-1.05-.49-1.6-.07-.53.04-1.14.24-1.64.43-1.01,1.05-1.51,1.46-1.9.42-.38.69-.66.77-.78.08-.07.11-.3.07-.45-.02-.14-.27-.39-.73-.64-.46-.25-1.07-.5-1.69-1.02-.31-.29-.62-.62-.78-1.04-.19-.4-.25-.82-.26-1.24,0-.89.51-1.63.95-2.08.45-.46.89-.81,1.2-1.17.3-.36.46-.7.42-1.15h0c-.03-.29.17-.53.45-.56.24-.02.46.13.53.35.21.69,0,1.53-.35,2.1s-.77,1-1.06,1.42c-.28.42-.38.75-.31,1.02.07.34.22.53.49.68.29.17.78.32,1.37.52.57.22,1.39.53,2,1.37.55.82.75,1.83.46,2.85-.31.97-.85,1.54-1.2,2-.36.44-.55.8-.52.88.03.04.03.01.07.04.02.03.07.05.07.02,0-.07.13.02.59.17.46.17,1.15.32,2.03.91.3.22.61.5.88.83-.15-.33-.28-.7-.34-1.14-.05-.6.02-1.14.2-1.65.16-.51.51-1.03.89-1.41.81-.74,1.57-.94,2.11-1.14.54-.17.9-.32,1.03-.4.1-.03.21-.23.24-.38.04-.14-.09-.46-.41-.88-.31-.42-.77-.9-1.13-1.63-.16-.38-.31-.81-.29-1.26,0-.44.11-.85.27-1.23.36-.82,1.13-1.29,1.71-1.52.6-.24,1.14-.37,1.58-.58.42-.2.7-.45.84-.88h0c.09-.27.37-.41.63-.33.23.08.37.31.34.54-.08.71-.6,1.4-1.17,1.77-.56.37-1.11.6-1.54.87-.43.27-.65.53-.71.81-.06.33,0,.57.18.82.2.27.58.6,1.04,1.03.43.43,1.05,1.05,1.27,2.06.17.98-.06,1.98-.73,2.79-.68.76-1.41,1.07-1.92,1.34-.5.26-.83.5-.83.59,0,.05.02.02.05.07,0,.03.04.08.05.04.02-.07.11.08.47.4.36.34.92.76,1.49,1.66.17.31.34.67.45,1.07,0-.35.05-.73.17-1.13.19-.57.47-1.04.86-1.43.34-.4.87-.73,1.38-.93,1.03-.35,1.82-.22,2.39-.18.56.06.95.07,1.1.05.1.02.29-.12.38-.25.08-.11.1-.46-.02-.97-.12-.51-.34-1.13-.37-1.94,0-.41.05-.87.25-1.27.17-.41.44-.74.75-1.02.66-.6,1.55-.72,2.18-.69.64.03,1.19.12,1.67.11.47-.02.83-.13,1.13-.46h0c.19-.21.51-.23.71-.04.18.17.21.43.09.63-.36.61-1.12,1.03-1.79,1.14-.66.11-1.26.1-1.76.17s-.81.22-.97.45c-.2.28-.24.52-.18.82.07.33.29.79.53,1.36.22.57.54,1.39.32,2.4-.23.97-.85,1.79-1.8,2.26-.93.42-1.72.4-2.29.44-.57.03-.97.12-1,.2,0,.05,0,.03,0,.09,0,.03,0,.08.03.06.05-.06.07.11.27.55.19.46.53,1.07.69,2.12.03.35.03.76-.03,1.16.14-.32.34-.65.62-.96.41-.44.85-.76,1.36-.96.48-.23,1.1-.31,1.64-.28,1.09.1,1.75.53,2.26.8.49.28.84.46.98.5.09.05.31,0,.45-.08.12-.06.28-.38.37-.89.11-.52.16-1.17.46-1.93.17-.37.4-.77.75-1.06.32-.3.7-.49,1.09-.62.85-.28,1.71-.03,2.28.25.57.29,1.04.6,1.48.79.43.17.81.21,1.22.03h0c.25-.11.55,0,.66.26.1.22.02.48-.17.61-.58.42-1.45.49-2.1.32-.65-.17-1.19-.42-1.68-.57-.48-.14-.83-.13-1.07.02-.29.17-.43.38-.49.68-.08.33-.06.84-.07,1.46-.03.61-.08,1.48-.69,2.32-.61.79-1.5,1.29-2.56,1.33-1.02,0-1.73-.34-2.28-.53-.52-.2-.93-.28-.99-.22-.03.04,0,.03-.02.08-.03.02-.03.08,0,.07.07-.03.02.13.02.61-.02.49.05,1.2-.23,2.21-.12.36-.29.74-.53,1.09.28-.24.58-.48.98-.66.56-.24,1.09-.34,1.64-.32.53,0,1.13.16,1.61.41.95.53,1.39,1.2,1.74,1.65.33.46.58.76.69.85.06.09.29.13.45.11.14,0,.41-.22.7-.66.31-.42.62-1.01,1.2-1.57.31-.27.68-.55,1.11-.67.42-.14.84-.16,1.26-.12.88.09,1.57.67,1.97,1.16.41.49.71.97,1.04,1.32.32.33.65.52,1.1.53h0c.28,0,.5.23.49.51Z"/>
      <circle class="cls-2" cx="250" cy="166.49" r="14.6"/>
    </g>
    <g>
      <circle class="cls-6" cx="250" cy="336.69" r="27.85" transform="translate(-122.67 529) rotate(-80.7)"/>
      <circle class="cls-6" cx="250" cy="336.69" r="24.09" transform="translate(-122.63 529.07) rotate(-80.71)"/>
      <circle class="cls-6" cx="250" cy="336.69" r="20.33" transform="translate(-123.65 527.08) rotate(-80.41)"/>
      <circle class="cls-6" cx="250" cy="336.69" r="16.57" transform="translate(-156.95 437.96) rotate(-67.38)"/>
      <circle class="cls-6" cx="250" cy="336.69" r="12.81" transform="translate(-109.12 120.14) rotate(-22.32)"/>
      <circle class="cls-6" cx="250" cy="336.69" r="9.06" transform="translate(-109.33 120.48) rotate(-22.37)"/>
      <path class="cls-6" d="M255.3,336.69c0,2.93-2.37,5.3-5.3,5.3s-5.3-2.37-5.3-5.3,2.37-5.3,5.3-5.3,5.3,2.37,5.3,5.3Z"/>
    </g>
    <g>
      <g>
        <g>
          <path class="cls-6" d="M364.86,238.51s-25.39-10.85-26.12,20.57c0,0,13.63,3.49,17.29-9.26s8.82-11.31,8.82-11.31Z"/>
          <path class="cls-6" d="M338.67,259.08s-13.51-3.91-10.2-16.76-1.86-14.23-1.86-14.23c0,0,15.26,1.97,16.62,14.38"/>
        </g>
        <path class="cls-6" d="M338.42,258.95c-.84,4.37-4.28,7.97-8.37,9.71-4.09,1.74-8.75,1.81-13.12.96-3.46-.68-6.88-1.95-9.57-4.23-2.69-2.28-4.59-5.65-4.54-9.18.05-3.53,2.31-7.06,5.68-8.1,2.77-.85,5.86.05,8.19,1.77s4.01,4.18,5.42,6.71c1.42,2.53,2.63,5.18,4.26,7.57,4.79,7.02,13.3,11.33,21.79,11.04,8.49-.29,16.69-5.18,20.98-12.51"/>
        <g>
          <path class="cls-6" d="M359.75,255.64c-1.55,4.76-5.3,8.74-9.96,10.58-2.28.9-4.73,1.3-7.03,2.15-2.3.85-4.56,2.27-5.57,4.5,5.32,1.4,11.09.67,15.49-2.64,4.4-3.3,6.93-9.09,7.07-14.59Z"/>
          <path class="cls-6" d="M337.66,272.82c2.01-1.69,4.72-2.22,7.29-2.73,2.57-.52,5.28-1.15,7.17-2.97"/>
        </g>
      </g>
      <path class="cls-6" d="M335.23,231.08c.96-.98,2.19-3.03.24-6.81,0,0,12.75,2.83,12.41,14.18"/>
      <path class="cls-6" d="M357.69,236.73c-.38-1.31-.5-3.71,3.01-6.11,0,0-8.05-2.27-13.87,2.04"/>
      <path class="cls-6" d="M342.33,227.48s1.28-2.89,6.67-5.29c0,0,3.38,3.01,3.85,7.94"/>
      <line class="cls-6" x1="324.86" y1="261.71" x2="326.61" y2="260.55"/>
      <line class="cls-6" x1="320.9" y1="254.58" x2="319.78" y2="255.44"/>
      <line class="cls-6" x1="315.91" y1="249.37" x2="317.09" y2="247.94"/>
      <line class="cls-6" x1="305.96" y1="249.53" x2="307.14" y2="250.84"/>
      <line class="cls-6" x1="302.82" y1="256.22" x2="301.12" y2="256.32"/>
      <line class="cls-6" x1="304.69" y1="262.37" x2="306.27" y2="261.13"/>
      <line class="cls-6" x1="310.48" y1="267.46" x2="309.7" y2="269.12"/>
      <line class="cls-6" x1="317.69" y1="269.76" x2="318.07" y2="268.29"/>
      <line class="cls-6" x1="326.24" y1="269.8" x2="326.77" y2="271.31"/>
      <line class="cls-6" x1="335.43" y1="264.82" x2="334.2" y2="263.85"/>
      <line class="cls-6" x1="336.17" y1="272.58" x2="335.53" y2="273.97"/>
      <line class="cls-6" x1="351.26" y1="274.91" x2="351.03" y2="273.28"/>
      <line class="cls-6" x1="359.75" y1="271.89" x2="360.71" y2="273.33"/>
    </g>
    <g>
      <path class="cls-6" d="M150,239.9s.04,23.59,20.28,34.13"/>
      <path class="cls-6" d="M163.16,269.17s-7.79-5.67-16.08-6.42"/>
      <path class="cls-6" d="M162.52,243.89s-7.11,7.22-2.64,21.96"/>
      <g>
        <path class="cls-6" d="M147.39,221.89c-.33,3.08-2.01,5.9-2.32,8.99-.2,1.99.2,4.03,1.13,5.8.81,1.54,2.12,2.93,3.81,3.32,1.99-1.2,3.13-3.61,3.18-5.94.05-2.33-.88-4.6-2.25-6.48-.66-.91-1.43-1.75-2.08-2.67-.65-.93-1.37-1.89-1.47-3.01Z"/>
        <path class="cls-6" d="M149.91,239.97c-.58-3.68-1.16-7.37-1.74-11.05"/>
      </g>
      <g>
        <path class="cls-6" d="M174.64,232.49c-2.47,1.36-5.45,1.59-7.91,2.97-1.58.89-2.9,2.25-3.73,3.87-.73,1.41-1.08,3.11-.48,4.57,1.94.86,4.33.45,6.09-.73,1.76-1.18,2.96-3.06,3.65-5.07.33-.97.55-1.98.91-2.94.35-.96.69-2.01,1.48-2.67Z"/>
        <path class="cls-6" d="M162.49,243.81c2.44-2.36,4.88-4.71,7.33-7.07"/>
      </g>
      <g>
        <path class="cls-6" d="M136.75,256.8c1.42,1.4,2.17,3.37,3.6,4.76.92.89,2.11,1.51,3.37,1.75,1.1.21,2.32.11,3.2-.59.19-1.49-.57-3.02-1.72-3.98-1.15-.95-2.67-1.39-4.17-1.45-.73-.03-1.45.02-2.18-.02-.72-.04-1.5-.07-2.11-.46Z"/>
        <path class="cls-6" d="M146.87,262.76c-2.09-1.18-4.18-2.36-6.26-3.54"/>
      </g>
      <path class="cls-6" d="M152.86,263.87c-1.74-.67-3.04-2.2-3.75-3.92s-.86-3.62-.82-5.48c1.54,1.02,2.78,2.46,3.55,4.13.77,1.67,1.24,3.44,1.02,5.27Z"/>
      <path class="cls-6" d="M153.42,254.83c-.6-1.58-.35-3.41.39-4.93s1.94-2.78,3.23-3.88c.24,1.66.02,3.38-.65,4.92-.67,1.54-1.59,2.94-2.97,3.89Z"/>
      <path class="cls-6" d="M160.34,267.55c-1.1,1.5-2.92,2.36-4.77,2.58s-3.72-.12-5.5-.65c1.38-1.22,3.1-2.03,4.92-2.34,1.82-.3,3.65-.3,5.36.4Z"/>
      <path class="cls-6" d="M159.16,261.14c2.02-.44,3.71-1.9,4.77-3.67s1.56-3.82,1.82-5.87c-1.86.86-3.46,2.22-4.58,3.93-1.13,1.71-1.94,3.57-2,5.61Z"/>
      <path class="cls-6" d="M151.18,249.21c-2.32.42-4.74-.39-6.64-1.79-1.89-1.4-3.31-3.36-4.48-5.4,2.33.09,4.62.84,6.55,2.14,1.93,1.31,3.61,2.91,4.56,5.04Z"/>
    </g>
    <g>
      <g>
        <path class="cls-6" d="M133.29,231.82c0,1.22-.99,2.22-2.22,2.22s-2.22-.99-2.22-2.22.99-2.22,2.22-2.22,2.22.99,2.22,2.22Z"/>
        <circle class="cls-6" cx="121.79" cy="241.16" r="2.73"/>
        <path class="cls-6" d="M134.33,242.14c0,.78-.63,1.4-1.4,1.4s-1.4-.63-1.4-1.4.63-1.4,1.4-1.4,1.4.63,1.4,1.4Z"/>
      </g>
      <g>
        <path class="cls-6" d="M181,247.89c0,1.22-.99,2.22-2.22,2.22s-2.22-.99-2.22-2.22.99-2.22,2.22-2.22,2.22.99,2.22,2.22Z"/>
        <circle class="cls-6" cx="176.05" cy="263.41" r="2.73"/>
        <path class="cls-6" d="M190.24,256.29c0,.78-.63,1.4-1.4,1.4s-1.4-.63-1.4-1.4.63-1.4,1.4-1.4,1.4.63,1.4,1.4Z"/>
      </g>
    </g>
    <g>
      <g>
        <path class="cls-6" d="M378.29,234.25c0,1.22-.99,2.22-2.22,2.22s-2.22-.99-2.22-2.22.99-2.22,2.22-2.22,2.22.99,2.22,2.22Z"/>
        <circle class="cls-6" cx="373.35" cy="249.78" r="2.73"/>
        <path class="cls-6" d="M387.53,242.66c0,.78-.63,1.4-1.4,1.4s-1.4-.63-1.4-1.4.63-1.4,1.4-1.4,1.4.63,1.4,1.4Z"/>
      </g>
      <g>
        <path class="cls-6" d="M301.81,234.15c1.22,0,2.22.99,2.22,2.22s-.99,2.22-2.22,2.22-2.22-.99-2.22-2.22.99-2.22,2.22-2.22Z"/>
        <path class="cls-6" d="M317.33,236.37c1.51,0,2.73,1.22,2.73,2.73s-1.22,2.73-2.73,2.73-2.73-1.22-2.73-2.73,1.22-2.73,2.73-2.73Z"/>
        <path class="cls-6" d="M310.21,224.92c.78,0,1.4.63,1.4,1.4s-.63,1.4-1.4,1.4-1.4-.63-1.4-1.4.63-1.4,1.4-1.4Z"/>
      </g>
    </g>
    <g>
      <path class="cls-6" d="M479.86,249.41c0,6.36-4.25,12.49-4.76,18.72-.52,6.33,2.67,13.07,1.65,19.24-1.04,6.26-6.24,11.61-7.77,17.68-1.55,6.14.48,13.32-1.55,19.25-2.05,5.98-8.07,10.4-10.6,16.15-2.54,5.79-1.73,13.2-4.72,18.73-3.01,5.55-9.67,8.91-13.12,14.18-3.46,5.28-3.87,12.73-7.74,17.69-3.88,4.97-11,7.2-15.27,11.83-4.27,4.63-5.9,11.92-10.54,16.19-4.63,4.27-12.03,5.29-17,9.17-4.96,3.87-7.77,10.79-13.04,14.24-5.26,3.44-12.72,3.25-18.27,6.26-5.52,3-9.43,9.36-15.21,11.9-5.75,2.52-13.07,1.1-19.06,3.15-5.93,2.04-10.83,7.67-16.97,9.22-6.07,1.53-13.06-1.09-19.31-.05-6.17,1.02-11.94,5.76-18.26,6.28-6.23.51-12.69-3.22-19.04-3.22s-12.82,3.73-19.04,3.22c-6.33-.52-12.09-5.26-18.26-6.28-6.26-1.04-13.24,1.59-19.31.05-6.14-1.55-11.04-7.18-16.97-9.22-5.98-2.05-13.31-.63-19.06-3.15-5.79-2.54-9.69-8.91-15.21-11.9-5.55-3.01-13.01-2.81-18.27-6.26-5.28-3.46-8.08-10.38-13.04-14.24-4.97-3.88-12.37-4.91-17-9.17-4.63-4.27-6.27-11.55-10.54-16.19-4.27-4.63-11.39-6.86-15.27-11.83-3.87-4.96-4.29-12.42-7.74-17.69-3.44-5.26-10.11-8.62-13.12-14.18-3-5.52-2.18-12.94-4.72-18.73-2.52-5.75-8.54-10.16-10.6-16.15-2.04-5.93,0-13.11-1.55-19.25-1.53-6.07-6.74-11.43-7.77-17.68-1.02-6.17,2.17-12.92,1.65-19.24-.51-6.23-4.76-12.36-4.76-18.72s4.25-12.49,4.76-18.72c.52-6.33-2.67-13.07-1.65-19.24,1.04-6.26,6.24-11.61,7.77-17.68,1.55-6.14-.48-13.32,1.55-19.25,2.05-5.98,8.07-10.4,10.6-16.15,2.54-5.79,1.73-13.2,4.72-18.73,3.01-5.55,9.67-8.91,13.12-14.18,3.46-5.28,3.87-12.73,7.74-17.69,3.88-4.97,11-7.2,15.27-11.83,4.27-4.63,5.9-11.92,10.54-16.19,4.63-4.27,12.03-5.29,17-9.17,4.96-3.87,7.77-10.79,13.04-14.24,5.26-3.44,12.72-3.25,18.27-6.26,5.52-3,9.43-9.36,15.21-11.9,5.75-2.52,13.07-1.1,19.06-3.15,5.93-2.04,10.83-7.67,16.97-9.22,6.07-1.53,13.06,1.09,19.31.05,6.17-1.02,11.94-5.76,18.26-6.28,6.23-.51,12.69,3.22,19.04,3.22s12.82-3.73,19.04-3.22c6.33.52,12.09,5.26,18.26,6.28,6.26,1.04,13.24-1.59,19.31-.05,6.14,1.55,11.04,7.18,16.97,9.22,5.98,2.05,13.31.63,19.06,3.15,5.79,2.54,9.69,8.91,15.21,11.9,5.55,3.01,13.01,2.81,18.27,6.26,5.28,3.46,8.08,10.38,13.04,14.24,4.97,3.88,12.37,4.9,17,9.17,4.63,4.27,6.27,11.55,10.54,16.19,4.27,4.63,11.39,6.86,15.27,11.83,3.87,4.96,4.29,12.42,7.74,17.69,3.44,5.26,10.11,8.62,13.12,14.18,3,5.52,2.18,12.94,4.72,18.73,2.52,5.75,8.54,10.16,10.6,16.15,2.04,5.93,0,13.11,1.55,19.25,1.53,6.07,6.74,11.43,7.77,17.68,1.02,6.17-2.17,12.92-1.65,19.24.51,6.23,4.76,12.36,4.76,18.72Z"/>
      <path class="cls-3" d="M483.82,249.41c0,6.47-4.26,12.71-4.78,19.05-.53,6.44,2.65,13.29,1.61,19.57-1.05,6.36-6.28,11.82-7.84,18-1.58,6.25.42,13.53-1.65,19.57-2.09,6.09-8.15,10.61-10.72,16.45-2.59,5.89-1.82,13.4-4.87,19.02-3.06,5.65-9.78,9.1-13.29,14.46-3.52,5.37-4,12.91-7.93,17.96-3.94,5.06-11.14,7.37-15.48,12.08-4.34,4.72-6.05,12.08-10.77,16.42-4.71,4.34-12.19,5.44-17.25,9.38-5.05,3.94-7.94,10.92-13.31,14.43-5.35,3.5-12.91,3.36-18.55,6.42-5.62,3.05-9.62,9.46-15.51,12.04-5.85,2.57-13.27,1.18-19.36,3.27-6.03,2.07-11.04,7.73-17.29,9.31-6.18,1.56-13.27-1.04-19.63.01-6.28,1.04-12.15,5.8-18.59,6.32-6.33.52-12.9-3.21-19.37-3.21s-13.04,3.73-19.37,3.21c-6.44-.53-12.31-5.28-18.59-6.32-6.36-1.05-13.46,1.55-19.64-.01-6.25-1.58-11.25-7.24-17.29-9.31-6.09-2.09-13.51-.7-19.36-3.27-5.89-2.59-9.89-9-15.51-12.04-5.65-3.06-13.2-2.92-18.55-6.42-5.37-3.52-8.26-10.5-13.31-14.43-5.06-3.94-12.54-5.04-17.25-9.38-4.72-4.34-6.42-11.7-10.77-16.42-4.34-4.71-11.54-7.02-15.48-12.08-3.94-5.05-4.42-12.59-7.93-17.96-3.5-5.35-10.22-8.81-13.29-14.46-3.05-5.62-2.28-13.14-4.87-19.02-2.57-5.85-8.63-10.37-10.72-16.45-2.07-6.03-.07-13.32-1.65-19.57-1.56-6.18-6.78-11.64-7.84-18-1.04-6.28,2.14-13.13,1.61-19.57-.52-6.33-4.78-12.58-4.78-19.05s4.26-12.71,4.78-19.05c.53-6.44-2.65-13.29-1.61-19.57,1.05-6.36,6.28-11.82,7.84-18,1.58-6.25-.42-13.53,1.65-19.57,2.09-6.09,8.15-10.61,10.72-16.45,2.59-5.89,1.82-13.4,4.87-19.02,3.06-5.65,9.78-9.1,13.29-14.46,3.52-5.37,4-12.91,7.93-17.96,3.94-5.06,11.14-7.37,15.48-12.08,4.34-4.72,6.05-12.08,10.77-16.42,4.71-4.34,12.19-5.44,17.25-9.38,5.05-3.94,7.94-10.92,13.31-14.43,5.35-3.5,12.91-3.36,18.55-6.42,5.62-3.05,9.62-9.46,15.51-12.04,5.85-2.57,13.27-1.18,19.36-3.27,6.03-2.07,11.04-7.73,17.29-9.31,6.18-1.56,13.27,1.04,19.63-.01,6.28-1.04,12.15-5.8,18.59-6.32,6.33-.52,12.9,3.21,19.37,3.21s13.04-3.73,19.37-3.21c6.44.53,12.31,5.28,18.59,6.32,6.36,1.05,13.46-1.55,19.64.01,6.25,1.58,11.25,7.24,17.29,9.31,6.09,2.09,13.51.7,19.36,3.27,5.89,2.59,9.89,9,15.51,12.04,5.65,3.06,13.2,2.92,18.55,6.42,5.37,3.52,8.26,10.5,13.31,14.43,5.06,3.94,12.54,5.04,17.25,9.38,4.72,4.34,6.42,11.7,10.77,16.42,4.34,4.71,11.54,7.02,15.48,12.08,3.94,5.05,4.42,12.59,7.93,17.96,3.5,5.35,10.22,8.81,13.29,14.46,3.05,5.62,2.28,13.14,4.87,19.02,2.57,5.85,8.63,10.37,10.71,16.45,2.07,6.03.07,13.32,1.65,19.57,1.56,6.18,6.78,11.64,7.84,18,1.04,6.28-2.14,13.13-1.61,19.57.52,6.33,4.78,12.58,4.78,19.05Z"/>
    </g>
    <g>
      <polygon class="cls-6" points="133.89 101.14 130.59 90.99 119.92 90.99 128.56 84.71 125.26 74.56 133.89 80.84 142.53 74.56 139.23 84.71 147.86 90.99 137.19 90.99 133.89 101.14"/>
      <path class="cls-6" d="M130.59,90.99h6.6s1.95-6.01,2.04-6.27-5.34-3.88-5.34-3.88l-5.34,3.88,2.04,6.27Z"/>
    </g>
    <g>
      <path class="cls-6" d="M395.17,100c0,5.34-2.95,10.01-7.31,12.44-2.05,1.15-4.42,1.81-6.94,1.81-7.87,0-14.24-6.38-14.24-14.25s6.37-14.24,14.24-14.24c2.52,0,4.89.65,6.94,1.81,4.36,2.43,7.31,7.09,7.31,12.43Z"/>
      <path class="cls-6" d="M395.17,100c0,5.34-2.95,10.01-7.31,12.44-4.36-2.44-7.31-7.1-7.31-12.44s2.95-10.01,7.31-12.43c4.36,2.43,7.31,7.09,7.31,12.43Z"/>
    </g>
    <path class="cls-6" d="M138.87,422.98c-2.05,1.16-4.42,1.81-6.94,1.81-7.87,0-14.24-6.38-14.24-14.25s6.37-14.24,14.24-14.24c2.52,0,4.89.66,6.94,1.81-4.36,2.42-7.31,7.09-7.31,12.43s2.95,10.01,7.31,12.44Z"/>
    <g>
      <polygon class="cls-6" points="377.82 386.91 362.63 413.21 393.01 413.21 377.82 386.91 362.63 413.21 393.01 413.21 377.82 386.91"/>
      <polygon class="cls-6" points="377.82 413.21 385.41 400.06 370.22 400.06 377.82 413.21 385.41 400.06 370.22 400.06 377.82 413.21"/>
    </g>
    <g>
      <g>
        <line class="cls-6" x1="469.31" y1="30.91" x2="427.09" y2="72.73"/>
        <line class="cls-6" x1="469.27" y1="47.72" x2="433.88" y2="79.81"/>
        <line class="cls-6" x1="466.08" y1="65.84" x2="440.34" y2="87.18"/>
        <line class="cls-6" x1="460.69" y1="84.07" x2="446.48" y2="94.84"/>
        <line class="cls-6" x1="414.13" y1="40.96" x2="404.71" y2="53.18"/>
        <line class="cls-6" x1="432.85" y1="35.03" x2="412.38" y2="59.3"/>
        <line class="cls-6" x1="451.25" y1="31.6" x2="419.77" y2="65.74"/>
      </g>
      <g>
        <line class="cls-6" x1="30.91" y1="30.69" x2="72.73" y2="72.91"/>
        <line class="cls-6" x1="47.72" y1="30.73" x2="79.81" y2="66.12"/>
        <line class="cls-6" x1="65.84" y1="33.92" x2="87.18" y2="59.66"/>
        <line class="cls-6" x1="84.07" y1="39.31" x2="94.84" y2="53.52"/>
        <line class="cls-6" x1="40.96" y1="85.87" x2="53.18" y2="95.29"/>
        <line class="cls-6" x1="35.03" y1="67.15" x2="59.3" y2="87.62"/>
        <line class="cls-6" x1="31.6" y1="48.75" x2="65.74" y2="80.23"/>
      </g>
      <g>
        <line class="cls-6" x1="30.69" y1="469.09" x2="72.91" y2="427.27"/>
        <line class="cls-6" x1="30.73" y1="452.28" x2="66.12" y2="420.19"/>
        <line class="cls-6" x1="33.92" y1="434.16" x2="59.66" y2="412.82"/>
        <line class="cls-6" x1="39.31" y1="415.93" x2="53.52" y2="405.16"/>
        <line class="cls-6" x1="85.87" y1="459.04" x2="95.29" y2="446.82"/>
        <line class="cls-6" x1="67.15" y1="464.97" x2="87.62" y2="440.7"/>
        <line class="cls-6" x1="48.75" y1="468.4" x2="80.23" y2="434.26"/>
      </g>
      <g>
        <line class="cls-6" x1="469.09" y1="469.31" x2="427.27" y2="427.09"/>
        <line class="cls-6" x1="452.28" y1="469.27" x2="420.19" y2="433.88"/>
        <line class="cls-6" x1="434.16" y1="466.08" x2="412.82" y2="440.34"/>
        <line class="cls-6" x1="415.93" y1="460.69" x2="405.16" y2="446.48"/>
        <line class="cls-6" x1="459.04" y1="414.13" x2="446.82" y2="404.71"/>
        <line class="cls-6" x1="464.97" y1="432.85" x2="440.7" y2="412.38"/>
        <line class="cls-6" x1="468.4" y1="451.25" x2="434.26" y2="419.77"/>
      </g>
    </g>
    <g>
      <g>
        <path class="cls-5" d="M166.9,69.12c-.33,2.75-2.83,4.7-5.58,4.37s-4.7-2.83-4.37-5.58c.33-2.75,2.83-4.7,5.58-4.37,2.75.33,4.7,2.83,4.37,5.58Z"/>
        <path class="cls-5" d="M178.82,62.84c-.21,1.74-1.79,2.98-3.53,2.77-1.74-.21-2.98-1.79-2.77-3.53s1.79-2.98,3.53-2.77c1.74.21,2.98,1.79,2.77,3.53Z"/>
        <path class="cls-5" d="M188.24,58.89c-.09.7-.72,1.2-1.43,1.12-.7-.09-1.2-.72-1.12-1.43.09-.7.72-1.2,1.43-1.12.7.09,1.2.72,1.12,1.43Z"/>
      </g>
      <g>
        <path class="cls-5" d="M105.44,115.53c2.75.33,5.25-1.62,5.58-4.37.33-2.75-1.62-5.25-4.37-5.58-2.75-.33-5.25,1.62-5.58,4.37s1.62,5.25,4.37,5.58Z"/>
        <path class="cls-5" d="M96.49,125.6c1.74.21,3.32-1.03,3.53-2.77.21-1.74-1.03-3.32-2.77-3.53-1.74-.21-3.32,1.03-3.53,2.77-.21,1.74,1.03,3.32,2.77,3.53Z"/>
        <path class="cls-5" d="M90.39,133.79c.7.09,1.34-.41,1.43-1.12.09-.7-.41-1.34-1.12-1.43-.7-.09-1.34.41-1.43,1.12-.09.7.41,1.34,1.12,1.43Z"/>
      </g>
    </g>
    <g>
      <g>
        <path class="cls-5" d="M104.05,382.32c2.75-.33,5.24,1.63,5.57,4.38s-1.63,5.24-4.38,5.57c-2.75.33-5.24-1.63-5.57-4.38-.33-2.75,1.63-5.24,4.38-5.57Z"/>
        <path class="cls-5" d="M95.11,372.24c1.74-.21,3.32,1.03,3.53,2.77.21,1.74-1.03,3.32-2.77,3.53-1.74.21-3.32-1.03-3.53-2.77-.21-1.74,1.03-3.32,2.77-3.53Z"/>
        <path class="cls-5" d="M89.02,364.04c.7-.08,1.34.42,1.43,1.12.08.7-.42,1.34-1.12,1.43-.7.08-1.34-.42-1.43-1.12-.08-.7.42-1.34,1.12-1.43Z"/>
      </g>
      <g>
        <path class="cls-5" d="M163.77,430.94c-.33-2.75-2.83-4.71-5.57-4.38-2.75.33-4.71,2.83-4.38,5.57.33,2.75,2.83,4.71,5.57,4.38,2.75-.33,4.71-2.83,4.38-5.57Z"/>
        <path class="cls-5" d="M175.68,437.23c-.21-1.74-1.79-2.98-3.53-2.77-1.74.21-2.98,1.79-2.77,3.53.21,1.74,1.79,2.98,3.53,2.77,1.74-.21,2.98-1.79,2.77-3.53Z"/>
        <path class="cls-5" d="M185.09,441.21c-.08-.7-.72-1.2-1.43-1.12-.7.08-1.2.72-1.12,1.43.08.7.72,1.2,1.43,1.12s1.2-.72,1.12-1.43Z"/>
      </g>
    </g>
    <g>
      <g>
        <path class="cls-5" d="M348.54,82.04c.17,2.76,2.56,4.86,5.32,4.69,2.76-.17,4.86-2.56,4.69-5.32-.17-2.76-2.56-4.86-5.32-4.69-2.76.17-4.86,2.56-4.69,5.32Z"/>
        <path class="cls-5" d="M337.01,75.08c.11,1.75,1.62,3.08,3.37,2.97,1.75-.11,3.08-1.62,2.97-3.37-.11-1.75-1.62-3.08-3.37-2.97-1.75.11-3.08,1.62-2.97,3.37Z"/>
        <path class="cls-5" d="M327.83,70.58c.04.71.65,1.24,1.36,1.2.71-.04,1.24-.65,1.2-1.36-.04-.71-.65-1.24-1.36-1.2-.71.04-1.24.65-1.2,1.36Z"/>
      </g>
      <g>
        <circle class="cls-5" cx="406.9" cy="126.92" r="5.01" transform="translate(41.9 347.03) rotate(-48.42)"/>
        <path class="cls-5" d="M415.57,142.49c-1.75.11-3.26-1.22-3.37-2.97-.11-1.75,1.22-3.26,2.97-3.37,1.75-.11,3.26,1.22,3.37,2.97.11,1.75-1.22,3.26-2.97,3.37Z"/>
        <path class="cls-5" d="M421.19,151.02c-.71.04-1.32-.49-1.36-1.2-.04-.71.49-1.32,1.2-1.36.71-.04,1.32.49,1.36,1.2s-.49,1.32-1.2,1.36Z"/>
      </g>
    </g>
    <g>
      <g>
        <circle class="cls-5" cx="400.57" cy="381.68" r="5.01" transform="translate(-150.78 428.06) rotate(-48.43)"/>
        <path class="cls-5" d="M410.32,366.76c-1.74-.23-3.34.99-3.57,2.72-.23,1.74.98,3.34,2.72,3.57,1.74.23,3.34-.99,3.57-2.72.23-1.74-.98-3.34-2.72-3.57Z"/>
        <path class="cls-5" d="M416.52,358.65c-.7-.09-1.35.4-1.44,1.1-.09.7.4,1.35,1.1,1.44s1.35-.4,1.44-1.1-.4-1.35-1.1-1.44Z"/>
      </g>
      <g>
        <path class="cls-5" d="M340.83,424.48c.37-2.74,2.89-4.67,5.64-4.3s4.67,2.89,4.3,5.64c-.37,2.74-2.89,4.67-5.64,4.3-2.74-.37-4.67-2.89-4.3-5.64Z"/>
        <path class="cls-5" d="M328.83,430.61c.23-1.74,1.83-2.96,3.57-2.72,1.74.23,2.96,1.83,2.72,3.57-.23,1.74-1.83,2.96-3.57,2.72-1.74-.23-2.96-1.83-2.72-3.57Z"/>
        <path class="cls-5" d="M319.36,434.45c.09-.7.74-1.19,1.44-1.1.7.09,1.19.74,1.1,1.44s-.74,1.19-1.44,1.1c-.7-.09-1.19-.74-1.1-1.44Z"/>
      </g>
    </g>
  </g>
</svg>